<svg height="496pt" viewBox="0 -20 496 496" width="496pt" xmlns="http://www.w3.org/2000/svg"><path d="m176 93.921875c10.320312.558594 21.039062 1.117187 32 1.4375v80c-10.960938-.320313-21.679688-.878906-32-1.4375zm0 0" fill="#f0bc5e"/><path d="m280 128h16v16h-16zm0 0"/><path d="m480 56c0-47.457031-222.519531-48-232-48-23.503906 0-46.496094.703125-68.617188 1.96875-4.367187-6.007812-11.398437-9.96875-19.382812-9.96875-9.273438 0-17.238281 5.34375-21.238281 13.054688-81.394531 8.007812-122.761719 22.441406-122.761719 42.945312v80c0 42.984375 182.542969 47.480469 224 47.945312v17.191407c-13.769531 3.574219-24 16-24 30.863281s10.230469 27.289062 24 30.863281v33.136719h16v-33.136719c13.769531-3.574219 24-16 24-30.863281s-10.230469-27.289062-24-30.863281v-17.136719h24c3.015625 0 5.960938-.3125 8.832031-.847656 66.71875-2.410156 191.167969-11.664063 191.167969-47.152344zm-15.984375-.128906c-3.023437 11.21875-79.871094 32.128906-216.015625 32.128906-23.113281 0-44.375-.640625-64-1.695312v-60.527344c20.703125-1.121094 42.097656-1.777344 64-1.777344 136.144531 0 212.992188 20.910156 216.015625 31.871094zm-184.015625 48.128906c17.648438 0 32 14.351562 32 32 0 15.519531-11.113281 28.472656-25.792969 31.375-12.207031.367188-24.839843.625-38.207031.625-11.113281 0-21.679688-.183594-32-.449219v-23.550781h48v-16h-48v-24.558594c17.769531.527344 29.9375.558594 32 .558594zm-120-88c4.414062 0 8 3.59375 8 8v61.3125c-5.480469-.382812-10.832031-.785156-16-1.234375v-60.078125c0-4.40625 3.585938-8 8-8zm-24 13.425781v53.140625c-65.648438-6.941406-101.878906-18.957031-104-26.414062v-.054688c1.558594-5.503906 29.214844-18.867187 104-26.671875zm-104 106.574219v-60.3125c34.121094 18.632812 115.34375 25.015625 168 27.183594v64.21875c-106.105469-4.136719-165.367188-21.386719-168-31.089844zm232 96c0 5.894531-3.238281 11-8 13.777344v-13.777344h-16v13.777344c-4.761719-2.777344-8-7.882813-8-13.777344 0-8.824219 7.175781-16 16-16s16 7.175781 16 16zm53.382812-65.960938c6.625-8.230468 10.617188-18.671874 10.617188-30.039062 0-13.265625-5.40625-25.289062-14.144531-33.984375 51.730469-2.824219 119.695312-9.695313 150.144531-26.328125l.007812 60.183594c-2.457031 9.136718-53.976562 24.714844-146.625 30.167968zm0 0"/><path d="m48 104h16v16h-16zm0 0"/><path d="m88 120h16v16h-16zm0 0"/><path d="m128 128h16v16h-16zm0 0"/><path d="m432 224v-8h-16v8c0 13.230469-10.769531 24-24 24h-8v16h8c13.230469 0 24 10.769531 24 24v8h16v-8c0-13.230469 10.769531-24 24-24h8v-16h-8c-13.230469 0-24-10.769531-24-24zm-8 40.246094c-2.335938-3.140625-5.105469-5.910156-8.246094-8.246094 3.140625-2.335938 5.910156-5.105469 8.246094-8.246094 2.335938 3.140625 5.105469 5.910156 8.246094 8.246094-3.140625 2.335938-5.910156 5.105469-8.246094 8.246094zm0 0"/><path d="m416 184h16v16h-16zm0 0"/><path d="m416 312h16v16h-16zm0 0"/><path d="m480 248h16v16h-16zm0 0"/><path d="m352 248h16v16h-16zm0 0"/><path d="m80 352v-8h-16v8c0 13.230469-10.769531 24-24 24h-8v16h8c13.230469 0 24 10.769531 24 24v8h16v-8c0-13.230469 10.769531-24 24-24h8v-16h-8c-13.230469 0-24-10.769531-24-24zm-8 40.246094c-2.335938-3.140625-5.105469-5.910156-8.246094-8.246094 3.140625-2.335938 5.910156-5.105469 8.246094-8.246094 2.335938 3.140625 5.105469 5.910156 8.246094 8.246094-3.140625 2.335938-5.910156 5.105469-8.246094 8.246094zm0 0"/><path d="m64 312h16v16h-16zm0 0"/><path d="m64 440h16v16h-16zm0 0"/><path d="m128 376h16v16h-16zm0 0"/><path d="m0 376h16v16h-16zm0 0"/><path d="m321.375 368c-8.175781 0-15.871094-3.183594-21.65625-8.96875l-12.6875-12.6875c-1.496094-1.496094-3.550781-2.34375-5.65625-2.34375h-66.75c-2.105469 0-4.167969.847656-5.65625 2.34375l-12.6875 12.6875c-5.785156 5.785156-13.472656 8.96875-21.65625 8.96875-16.882812 0-30.625-13.742188-30.625-30.625 0-8.175781 3.183594-15.871094 8.96875-21.65625l3.71875-3.71875-3.71875-3.71875c-5.785156-5.785156-8.96875-13.472656-8.96875-21.65625 0-16.882812 13.742188-30.625 30.625-30.625 8.175781 0 15.871094 3.183594 21.65625 8.96875l12.6875 12.6875c1.496094 1.496094 3.550781 2.34375 5.65625 2.34375h66.75c2.105469 0 4.167969-.847656 5.65625-2.34375l12.6875-12.6875c5.777344-5.785156 13.472656-8.96875 21.65625-8.96875 16.882812 0 30.625 13.742188 30.625 30.625 0 8.175781-3.183594 15.871094-8.96875 21.65625l-3.71875 3.71875 3.71875 3.71875c5.785156 5.785156 8.96875 13.472656 8.96875 21.65625 0 16.882812-13.742188 30.625-30.625 30.625zm0 0" fill="#f0bc5e"/></svg>