<svg height="496pt" viewBox="0 -40 496 496" width="496pt" xmlns="http://www.w3.org/2000/svg"><path d="m468.847656 176.648438c-.542968.222656-55.609375 23.351562-132.847656 23.351562-42.535156 0-88.648438-11.902344-129.328125-22.40625-35.046875-9.050781-68.152344-17.59375-94.671875-17.59375-58 0-91.40625 24.550781-92.800781 25.601562l4.800781 190.398438h448zm0 0" fill="#f0bc5e"/><path d="m480 368v-225.472656c9.289062-3.3125 16-12.113282 16-22.527344 0-10.96875-7.441406-20.144531-17.503906-22.992188l-24.25-97.007812h-412.492188l-24.25 97.007812c-10.0625 2.847657-17.503906 12.023438-17.503906 22.992188 0 10.414062 6.710938 19.214844 16 22.527344v225.472656c-8.824219 0-16 7.175781-16 16v16c0 8.824219 7.175781 16 16 16h464c8.824219 0 16-7.175781 16-16v-16c0-8.824219-7.175781-16-16-16zm-77.390625 0 9.191406-32.183594c1.007813-3.527344 1.773438-7.113281 2.421875-10.71875l23.433594-23.433594-11.3125-11.3125-10.582031 10.585938c-.546875-12.328125-3.066407-24.296875-7.53125-35.496094l14.929687-29.855468-14.3125-7.160157-9.671875 19.351563c-4.296875-6.792969-9.289062-13.203125-15.105469-19.023438l-10.40625-10.410156-11.3125 11.3125 10.410157 10.40625c9.199219 9.203125 16.167969 20.007812 20.78125 31.761719l-13.957031-6.976563-7.160157 14.3125 26.503907 13.253906c.636718 4.425782 1.070312 8.898438 1.070312 13.441407 0 5.746093-.726562 11.433593-1.777344 17.054687l-16.566406-16.566406-11.3125 11.3125 23.335938 23.335938-7.71875 27.007812h-41.960938v-224h120v224zm59.152344-272h-115.523438l20-80h75.503907zm-407.515625-80h295.515625l-20 80h-295.523438zm-30.246094 96h448c4.414062 0 8 3.585938 8 8s-3.585938 8-8 8h-448c-4.414062 0-8-3.585938-8-8s3.585938-8 8-8zm8 32h296v224h-27.054688l-16-32h-33.632812l-16-16h-54.625l-16 16h-25.632812l-14.101563 28.207031-6.632813-23.207031 23.335938-23.335938-11.3125-11.3125-16.566406 16.570313c-1.050782-5.640625-1.777344-11.320313-1.777344-17.074219 0-4.542968.433594-9.015625 1.070312-13.441406l26.503907-13.253906-7.160157-14.3125-13.957031 6.976562c4.613281-11.753906 11.582031-22.558594 20.78125-31.761718l8.074219-8.054688h28.6875v-16h-24v-24h-16v28.6875l-8.0625 8.066406c-5.816406 5.8125-10.808594 12.230469-15.105469 19.023438l-9.671875-19.351563-14.3125 7.160157 14.929688 29.855468c-4.472656 11.199219-6.984375 23.167969-7.53125 35.496094l-10.582032-10.585938-11.3125 11.3125 23.433594 23.433594c.648438 3.605469 1.40625 7.191406 2.414063 10.71875l9.191406 32.183594h-77.390625zm251.054688 224h-142.109376l8-16h22.367188l16-16h41.375l16 16h30.367188zm-267.054688 16h312v16h-312zm328 16v-16h136l.015625 16zm0 0"/><path d="m288 248h16v16h-16zm0 0"/><path d="m296 328h16v16h-16zm0 0"/><path d="m56 200h16v16h-16zm0 0"/><path d="m48 272h16v16h-16zm0 0"/><path d="m192 248h16v16h-16zm0 0"/><path d="m432 256h16v16h-16zm0 0"/><path d="m88 80h72v-48h-72c-13.230469 0-24 10.769531-24 24s10.769531 24 24 24zm56-16h-16v-16h16zm-56-16h24v16h-24c-4.414062 0-8-3.585938-8-8s3.585938-8 8-8zm0 0"/></svg>