<svg height="496pt" viewBox="0 0 496 496" width="496pt" xmlns="http://www.w3.org/2000/svg"><path d="m472 256h-32v16h32c4.414062 0 8 3.59375 8 8s-3.585938 8-8 8h-32v16h22.9375l-7.875 62.945312c-3.488281 27.964844-27.375 49.054688-55.558594 49.054688h-239.007812c-4.480469 0-8.929688-.527344-13.238282-1.574219l-3.785156 15.542969c5.558594 1.351562 11.289063 2.03125 17.023438 2.03125h15.503906c0 8.824219-7.175781 16-16 16-7.566406 0-14.167969-5.367188-15.679688-12.769531l-15.671874 3.210937c1.246093 6.109375 4.296874 11.453125 8.421874 15.71875l8.378907 41.839844h29.109375l8.351562-41.726562c5.601563-5.769532 9.089844-13.609376 9.089844-22.273438h176c0 8.664062 3.488281 16.503906 9.097656 22.273438l8.351563 41.726562h29.109375l8.351562-41.726562c5.601563-5.769532 9.089844-13.609376 9.089844-22.273438v-7.808594c20.742188-10.542968 35.894531-30.847656 38.945312-55.253906l8.269532-66.160156c9.695312-3.089844 16.785156-12.074219 16.785156-22.777344 0-13.230469-10.769531-24-24-24zm-313.449219 224-3.277343-16.414062c1.550781.230468 3.117187.414062 4.726562.414062 1.625 0 3.183594-.246094 4.734375-.480469l-3.285156 16.480469zm240 0-3.292969-16.480469c1.558594.234375 3.117188.480469 4.742188.480469s3.183594-.246094 4.734375-.480469l-3.285156 16.480469zm17.449219-48c0 8.824219-7.175781 16-16 16s-16-7.175781-16-16h15.503906c5.671875 0 11.175782-.734375 16.496094-1.992188zm0 0"/><path d="m407.328125 224.671875c-3.457031-18.566406-19.777344-32.671875-39.328125-32.671875-3.710938 0-7.390625.535156-11 1.609375-9.0625-11.128906-22.472656-17.609375-37-17.609375-12.007812 0-23.265625 4.414062-32 12.351562-8.734375-7.9375-19.992188-12.351562-32-12.351562-14.527344 0-27.9375 6.480469-37 17.609375-3.609375-1.074219-7.289062-1.609375-11-1.609375-19.550781 0-35.871094 14.105469-39.328125 32.671875-18.566406 3.457031-32.671875 19.777344-32.671875 39.328125v8h128v72c0 13.230469 10.769531 24 24 24s24-10.769531 24-24v-32c0-4.414062 3.585938-8 8-8s8 3.585938 8 8v64c0 13.230469 10.769531 24 24 24s24-10.769531 24-24v-64c0-4.414062 3.585938-8 8-8s8 3.585938 8 8v16c0 13.230469 10.769531 24 24 24s24-10.769531 24-24v-64c0-19.550781-14.105469-35.871094-32.671875-39.328125zm0 0" fill="#f0bc5e"/><path d="m312 216h16v16h-16zm0 0"/><path d="m200 224h16v16h-16zm0 0"/><path d="m88 272h176v-16h-127.121094c2.007813-9.671875 7.496094-18.054688 15.121094-23.824219v-72.175781h56v-16h-56v-32h40c22.054688 0 40-17.945312 40-40v-8h-80v-64h-48v64h-80v8c0 22.054688 17.945312 40 40 40h40v64h-56v16h56v64h-16c-13.230469 0-24 10.769531-24 24 0 10.703125 7.089844 19.6875 16.785156 22.769531l2.277344 18.222657 15.875-1.984376-1.875-15.007812h166.9375v-16h-176c-4.414062 0-8-3.59375-8-8s3.585938-8 8-8zm48-128v16h-16v-16zm-16-16v-16h16v16zm16 48v16h-16v-16zm0 32v16h-16v-16zm-16-192h16v16h-16zm0 32h16v16h-16zm-56 48c-10.433594 0-19.328125-6.6875-22.632812-16h173.265624c-3.304687 9.3125-12.199218 16-22.632812 16zm56 144h16v16h-16zm0 0"/><path d="m80 472c-44.113281 0-80-35.886719-80-80s35.886719-80 80-80 80 35.886719 80 80-35.886719 80-80 80zm0 0" fill="#f0bc5e"/><path d="m80 440c-22.054688 0-40-14.351562-40-32s17.945312-32 40-32 40 14.351562 40 32-17.945312 32-40 32zm0-48c-13.007812 0-24 7.328125-24 16s10.992188 16 24 16 24-7.328125 24-16-10.992188-16-24-16zm0 0"/><path d="m88 352c0 4.417969-3.582031 8-8 8s-8-3.582031-8-8 3.582031-8 8-8 8 3.582031 8 8zm0 0"/><path d="m56 368c0 4.417969-3.582031 8-8 8s-8-3.582031-8-8 3.582031-8 8-8 8 3.582031 8 8zm0 0"/><path d="m120 368c0 4.417969-3.582031 8-8 8s-8-3.582031-8-8 3.582031-8 8-8 8 3.582031 8 8zm0 0"/></svg>