<svg height="496pt" viewBox="-15 0 496 496" width="496pt" xmlns="http://www.w3.org/2000/svg"><path d="m80.015625 112.414062-57.121094 19.042969c7.058594-15.703125 20.058594-28.066406 36.65625-34.28125l25.808594-9.679687-5.625-14.984375-25.804687 9.679687c-26.515626 9.945313-45.671876 32.472656-51.226563 60.242188l-2.703125 13.511718 14.039062-4.679687c11.65625 15.503906 29.800782 24.734375 49.34375 24.734375h19.160157v-16h-19.160157c-12.640624 0-24.480468-5.222656-33.046874-14.167969l54.734374-18.246093zm0 0"/><path d="m314.542969 400h-224v-8c0-26.472656 21.527343-48 48-48h48v16h-48c-14.878907 0-27.429688 10.207031-30.984375 24h206.984375zm0 0"/><path d="m236.214844 341.464844c-41.125-28.472656-65.671875-75.3125-65.671875-125.34375 0-32.65625 24.433593-59.554688 56-63.554688v-76.566406c0-41.902344-34.09375-76-76-76-41.902344 0-76 34.097656-76 76v84c0 132.335938 107.664062 240 240 240v-32.246094c-28.023438-1.25-55.191407-10.265625-78.328125-26.289062zm0 0" fill="#f0bc5e"/><path d="m386.542969 480h-8v-16h8c22.058593 0 40-17.945312 40-40h16c0 30.871094-25.128907 56-56 56zm0 0"/><path d="m130.542969 112v-16c8.824219 0 16-7.175781 16-16s-7.175781-16-16-16v-16c17.648437 0 32 14.351562 32 32s-14.351563 32-32 32zm0 0"/><path d="m114.542969 72h16v16h-16zm0 0"/><path d="m336.527344 306.046875-32.710938-110.414063c-9.015625-30.402343-37.441406-51.632812-69.144531-51.632812-39.777344 0-72.128906 32.351562-72.128906 72.128906 0 52.632813 25.832031 101.949219 69.121093 131.917969 21.992188 15.21875 47.128907 24.367187 73.449219 27.042969l10.070313 120.910156h10.511718c20.457032 0 40.257813-6 57.28125-17.34375l5.695313-3.800781-45.625-98.855469h14.167969l77.058594 57.800781 4.710937-3.144531c17.253906-11.496094 27.558594-30.761719 27.558594-51.496094v-8.105468zm-157.984375-89.917969c0-30.953125 25.175781-56.128906 56.128906-56.128906 24.671875 0 46.800781 16.519531 53.808594 40.175781l38.695312 130.59375c-2.144531-1.320312-4.335937-2.578125-6.398437-4.007812-38.96875-26.96875-62.234375-71.371094-62.234375-118.761719h-16c0 52.632812 25.832031 101.953125 69.121093 131.921875 6.910157 4.78125 14.320313 8.925781 21.945313 12.558594l1.40625 4.757812c-18.886719-3.765625-37.039063-11.40625-52.855469-22.359375-38.960937-26.976562-62.222656-71.375-62.222656-118.765625v-8.113281h-16v8.128906c0 52.640625 25.832031 101.960938 69.117188 131.917969 3.601562 2.488281 7.335937 4.777344 11.128906 6.953125-15.390625-4.167969-30.054688-10.863281-43.40625-20.113281-38.96875-26.976563-62.234375-71.375-62.234375-118.757813zm189.761719 252.765625c-11.792969 6.601563-24.878907 10.363281-38.410157 11l-8.664062-103.894531h4.195312zm66.230468-54.902343-84.886718-63.65625-6.894532-23.289063 107.757813 53.882813c-.488281 12.847656-6.3125 24.78125-15.976563 33.0625zm0 0"/></svg>