<svg height="496pt" viewBox="0 -58 496 496" width="496pt" xmlns="http://www.w3.org/2000/svg"><path d="m456.472656 363.808594c2.214844-19.550782 12.4375-37.679688 28.328125-49.601563l-9.609375-12.800781c-7.519531 5.640625-13.910156 12.488281-19.191406 20.074219v-37.671875h-16v37.671875c-5.28125-7.585938-11.671875-14.425781-19.191406-20.074219l-9.609375 12.800781c15.890625 11.921875 26.113281 30.050781 28.328125 49.601563h-63.527344v-80h-16v80h-16v-72h-16v72h-67.71875l-4.753906-7.128906c-7.039063-10.566407-18.824219-16.871094-31.527344-16.871094s-24.488281 6.304687-31.527344 16.871094l-2.816406 4.214843c-2.472656 3.722657-8.746094 3.554688-11.03125-.261719l-10.855469-18.105468c-6.9375-11.542969-19.601562-18.71875-33.074219-18.71875-11.785156 0-22.757812 5.269531-30.128906 14.472656l-20.40625 25.527344h-19.679687c2.214843-19.550782 12.441406-37.679688 28.328125-49.601563l-9.609375-12.800781c-7.527344 5.640625-13.917969 12.488281-19.199219 20.074219v-37.671875h-16v37.671875c-5.28125-7.585938-11.671875-14.425781-19.191406-20.074219l-9.609375 12.800781c15.890625 11.921875 26.113281 30.050781 28.328125 49.601563h-47.527344v16h496v-16zm-232.472656-8c6.550781 0 12.574219 3.03125 16.710938 8h-33.421876c4.136719-4.96875 10.160157-8 16.710938-8zm-106.9375-7.527344c4.3125-5.386719 10.738281-8.472656 17.632812-8.472656 7.878907 0 15.296876 4.191406 19.351563 10.960937l7.824219 13.039063h-57.230469zm0 0"/><path d="m35.816406 255.808594c9.671875-7.746094 21.808594-12 34.191406-12 14.625 0 28.375 5.695312 38.710938 16.03125l11.25 11.25c13.359375 13.359375 31.128906 20.71875 50.023438 20.71875h22.007812v-16h-22.007812c-14.625 0-28.375-5.695313-38.710938-16.03125l-11.25-11.25c-4.6875-4.6875-9.941406-8.589844-15.574219-11.742188l22.695313-45.402344-14.3125-7.160156-17.625 35.257813c-7.414063-15.535157-7.941406-33.71875-.976563-49.9375l1.113281-2.582031-14.703124-6.3125-1.113282 2.582031c-9.199218 21.417969-7.910156 45.488281 2.679688 65.679687-3.992188-.6875-8.0625-1.101562-12.207032-1.101562-16 0-31.695312 5.503906-44.191406 15.503906l-22.816406 18.246094 10 12.496094zm0 0"/><path d="m480.488281 55.574219c-20.503906 16.410156-45.746093 26.089843-71.847656 27.867187-4.097656 8.03125-9.886719 15.078125-16.824219 20.902344l.183594-.007812c0 28.871093-17.910156 54.71875-44.945312 64.855468l-73.855469 27.695313c-6.078125 2.28125-12.527344 3.449219-19.023438 3.449219-29.917969 0-54.175781-24.257813-54.175781-54.175782 0-25.257812 15.390625-47.960937 38.847656-57.320312l12.625-5.03125h-19.472656c-24.632812 0-40.609375-7.976563-59.894531-21.761719l-7.65625-5.472656c-11.707031-8.351563-25.488281-12.765625-39.863281-12.765625-37.816407 0-68.585938 30.765625-68.585938 68.582031v4.386719c0 22 10.65625 42.808594 28.511719 55.65625l130.480469 93.941406c30.367187 21.871094 66.207031 33.433594 103.640624 33.433594 97.800782 0 177.367188-79.570313 177.367188-177.367188v-79.296875zm0 0" fill="#f0bc5e"/><path d="m104 123.808594h16v16h-16zm0 0"/><path d="m440 0-204.113281 81.40625c-26.664063 10.632812-43.886719 36.058594-43.886719 64.753906 0 34.289063 27.886719 62.175782 62.175781 62.175782 7.480469 0 14.824219-1.335938 21.832031-3.960938l73.855469-27.695312c28.816407-10.808594 48.488281-38.085938 49.984375-68.617188 13.738282-12.75 22.503906-30.382812 23.929688-49.65625 10.246094-12.980469 16.222656-29.269531 16.222656-46.597656zm-71.984375 108.96875-90.625 31.277344 5.21875 15.128906 90.621094-31.277344c2.914062-1.007812 5.707031-2.226562 8.425781-3.554687-5.160156 18.585937-18.847656 34.199219-37.417969 41.160156l-73.855469 27.695313c-5.199218 1.953124-10.65625 2.945312-16.199218 2.945312-25.464844 0-46.175782-20.71875-46.175782-46.175781 0-22.113281 13.273438-41.695313 33.816407-49.886719l180.894531-72.144531c-4.261719 20.070312-18.75 36.894531-38.695312 43.785156l-90.625 31.277344 5.21875 15.128906 90.621093-31.28125c4.808594-1.65625 9.328125-3.816406 13.59375-6.328125-6.535156 14.792969-18.855469 26.738281-34.816406 32.25zm0 0"/></svg>