<svg height="496pt" viewBox="-72 0 496 496" width="496pt" xmlns="http://www.w3.org/2000/svg"><path d="m32 416h288v40h-288zm0 0" fill="#f0bc5e"/><path d="m232 56c0-30.871094-25.121094-56-56-56s-56 25.128906-56 56c0 21.726562 12.695312 41.238281 32 50.441406v13.558594h16v-48c0-4.414062 3.59375-8 8-8s8 3.585938 8 8v48h16v-13.558594c19.304688-9.203125 32-28.722656 32-50.441406zm-32 31.976562v-15.976562c0-13.230469-10.769531-24-24-24s-24 10.769531-24 24v15.976562c-9.871094-7.417968-16-19.183593-16-31.976562 0-22.054688 17.945312-40 40-40s40 17.945312 40 40c0 12.792969-6.128906 24.550781-16 31.976562zm0 0"/><path d="m352 496h-352v-8c0-22.054688 17.945312-40 40-40h272c22.054688 0 40 17.945312 40 40zm-334.632812-16h317.257812c-3.304688-9.3125-12.199219-16-22.632812-16h-271.992188c-10.433594 0-19.328125 6.6875-22.632812 16zm0 0"/><path d="m176 160c20.113281 0 39.0625 4.769531 56 13.03125v-37.03125c0-8.839844-7.160156-16-16-16h-80c-8.839844 0-16 7.160156-16 16v37.03125c16.9375-8.261719 35.886719-13.03125 56-13.03125zm0 0" fill="#f0bc5e"/><path d="m280 200.542969v-.542969h-.496094c-24.960937-29.320312-62.0625-48-103.503906-48s-78.542969 18.679688-103.503906 48h-.496094v.542969c-19.9375 23.664062-32 54.160156-32 87.457031v128h16v-128c0-21.703125 5.878906-42.023438 16-59.617188v187.617188h16v-209.3125c4.886719-5.289062 10.238281-10.121094 16-14.464844v223.777344h16v-88c0-30.871094 25.121094-56 56-56s56 25.128906 56 56v88h16v-223.777344c5.761719 4.34375 11.113281 9.175782 16 14.464844v209.3125h16v-187.617188c10.121094 17.585938 16 37.90625 16 59.617188v128h16v-128c0-33.296875-12.0625-63.792969-32-87.457031zm-112 55.929687c-5.550781.617188-10.894531 1.917969-16 3.726563v-89.785157c5.207031-1.0625 10.574219-1.652343 16-2.015624zm16-88.066406c5.425781.363281 10.792969.953125 16 2.019531v89.78125c-5.105469-1.816406-10.449219-3.109375-16-3.726562zm-64 114.441406v-100.894531c5.113281-2.714844 10.480469-4.984375 16-6.945313v93.175782c-6.046875 4.046875-11.433594 9.007812-16 14.664062zm112 0c-4.566406-5.65625-9.953125-10.617187-16-14.671875v-93.175781c5.519531 1.960938 10.886719 4.230469 16 6.945312zm0 0"/><path d="m136 344h16v16h-16zm0 0"/></svg>