<svg height="496pt" viewBox="-15 0 495 496" width="496pt" xmlns="http://www.w3.org/2000/svg"><path d="m372.324219 239.03125-7.351563-14.214844c17.054688-8.519531 27.527344-25.472656 27.527344-44.320312v-12.496094h-7.335938c-24.273437 0-44.777343 17.375-48.769531 41.320312l-15.78125-2.632812c5.277344-31.679688 32.429688-54.679688 64.550781-54.679688h7.335938v-30.703124c0-9.542969 7.761719-17.304688 17.296875-17.304688 7.457031 0 14.054687 4.753906 16.414063 11.832031l4.617187 13.847657 13.839844 4.617187c7.078125 2.351563 11.832031 8.949219 11.832031 16.40625 0 9.535156-7.761719 17.296875-17.296875 17.296875h-30.703125v12.496094c0 24.953125-13.863281 47.382812-36.175781 58.535156zm36.175781-87.03125h30.703125c.710937 0 1.296875-.585938 1.296875-1.296875 0-.558594-.351562-1.054687-.886719-1.230469l-21.433593-7.144531-7.144532-21.433594c-.398437-1.222656-2.535156-.878906-2.535156.402344zm0 0"/><path d="m408.226562 259.328125c-2.140624-18.335937-16.71875-32.914063-35.054687-35.054687-6.617187-15.53125-22.375-25.824219-39.960937-24.113282-6.222657-14.359375-20.605469-24.160156-36.710938-24.160156s-30.488281 9.800781-36.710938 24.167969c-11.097656-1.070313-21.585937 2.742187-29.488281 9.734375-5.542969 42.167968-21.367187 78.050781-43.457031 102.105468h242.28125c2.191406-5.039062 3.375-10.480468 3.375-16.007812 0-16.152344-9.71875-30.472656-24.273438-36.671875zm0 0" fill="#f0bc5e"/><path d="m80.5 208c0 22.054688 17.945312 40 40 40s40-17.945312 40-40v-72h-80zm40 24c-10.414062 0-19.214844-6.710938-22.527344-16h45.046875c-3.304687 9.289062-12.105469 16-22.519531 16zm24-80v48h-48v-48zm0 0"/><path d="m112.5 168h16v16h-16zm0 0"/><path d="m120.5 48c39.023438 0 72 58.617188 72 128 0 30.910156-6.457031 60.855469-18.167969 84.328125l14.3125 7.152344c12.808594-25.648438 19.855469-58.136719 19.855469-91.480469 0-80.742188-38.65625-144-88-144-21.601562 0-42.296875 12.703125-58.28125 35.769531l13.152344 9.109375c12.90625-18.621094 28.929687-28.878906 45.128906-28.878906zm0 0"/><path d="m120.5 304c-39.023438 0-72-58.617188-72-128 0-30.910156 6.457031-60.855469 18.167969-84.328125l-14.3125-7.152344c-12.808594 25.648438-19.855469 58.136719-19.855469 91.480469 0 80.742188 38.65625 144 88 144 21.601562 0 42.296875-12.703125 58.28125-35.769531l-13.152344-9.109375c-12.90625 18.621094-28.929687 28.878906-45.128906 28.878906zm0 0"/><path d="m448.5 449.472656v-98.945312c9.289062-3.3125 16-12.113282 16-22.527344 0-13.230469-10.769531-24-24-24h-237.015625c22.878906-31.863281 37.015625-77.015625 37.015625-128 0-98.6875-52.710938-176-120-176s-120 77.3125-120 176 52.710938 176 120 176h8v97.472656c-9.289062 3.3125-16 12.113282-16 22.527344 0 13.230469 10.769531 24 24 24h304c13.230469 0 24-10.769531 24-24 0-10.414062-6.710938-19.214844-16-22.527344zm-304-1.472656v-96h288v96zm296-128c4.40625 0 8 3.59375 8 8s-3.59375 8-8 8h-269.449219c6.753907-4.496094 13.152344-9.832031 19.128907-16zm-320 16c-58.320312 0-104-70.28125-104-160s45.679688-160 104-160 104 70.28125 104 160-45.679688 160-104 160zm320 144h-304c-4.40625 0-8-3.59375-8-8s3.59375-8 8-8h304c4.40625 0 8 3.59375 8 8s-3.59375 8-8 8zm0 0"/><path d="m350.15625 381.65625-11.3125-11.3125-18.34375 18.34375-4.199219-4.199219c-10.632812-10.632812-24.769531-16.488281-39.800781-16.488281s-29.167969 5.855469-39.800781 16.488281l-15.511719 15.511719 15.511719 15.511719c10.632812 10.632812 24.769531 16.488281 39.800781 16.488281s29.167969-5.855469 39.800781-16.488281l4.199219-4.199219 18.34375 18.34375 11.3125-11.3125-18.34375-18.34375zm-45.167969 22.542969c-7.617187 7.609375-17.726562 11.800781-28.488281 11.800781s-20.871094-4.191406-28.488281-11.800781l-4.199219-4.199219 4.199219-4.199219c7.617187-7.609375 17.726562-11.800781 28.488281-11.800781s20.871094 4.191406 28.488281 11.800781l4.199219 4.199219zm0 0"/><path d="m288.5 208h16v16h-16zm0 0"/><path d="m352.5 272h16v16h-16zm0 0"/><path d="m240.5 264h16v16h-16zm0 0"/><path d="m304.5 248h16v16h-16zm0 0"/></svg>