<svg height="496pt" viewBox="0 0 496 496" width="496pt" xmlns="http://www.w3.org/2000/svg"><path d="m208 184c-12.640625 5.28125-24 12.960938-33.519531 22.480469-.082031.078125-.160157.160156-.242188.238281-20.160156-15.757812-43.277343-27.039062-67.917969-33.117188-1.519531-9.203124-2.320312-18.640624-2.320312-28.082031v-1.519531l13.199219 1.679688c33.199219 4.160156 64.640625 17.359374 90.800781 38.320312zm0 0" fill="#f0bc5e"/><path d="m392 144v1.519531c0 9.441407-.800781 18.878907-2.320312 28.082031-24.640626 6.078126-47.757813 17.359376-67.917969 33.117188-9.601563-9.679688-21.042969-17.4375-33.761719-22.71875 26.160156-20.960938 57.601562-34.160156 90.800781-38.320312zm0 0" fill="#f0bc5e"/><path d="m392 88h-16v-64c0-4.40625-3.585938-8-8-8h-240c-4.414062 0-8 3.59375-8 8v64h-16v-64c0-13.230469 10.769531-24 24-24h240c13.230469 0 24 10.769531 24 24zm0 0"/><path d="m248 40c-136.753906 0-248 111.246094-248 248v160h40v-160c0-114.871094 93.128906-208 208-208s208 93.128906 208 208v160h40v-160c0-136.753906-111.246094-248-248-248zm0 0" fill="#f0bc5e"/><path d="m208 272c0 4.417969-3.582031 8-8 8s-8-3.582031-8-8 3.582031-8 8-8 8 3.582031 8 8zm0 0"/><path d="m304 272c0 4.417969-3.582031 8-8 8s-8-3.582031-8-8 3.582031-8 8-8 8 3.582031 8 8zm0 0"/><path d="m488 448h-24v-160c0-119.105469-96.894531-216-216-216s-216 96.894531-216 216v160h-32v32c0 8.824219 7.175781 16 16 16h464c8.824219 0 16-7.175781 16-16v-32zm-40-160v160h-73.472656c.898437-2.511719 1.472656-5.183594 1.472656-8 0-22.054688-17.945312-40-40-40h-2.078125c2.15625-1.304688 4.34375-2.558594 6.453125-3.96875l10.175781-6.792969c10-6.664062 17.457031-16.148437 21.640625-27.023437 11.066406 3.472656 21.863282 7.753906 32.234375 12.9375l7.160157-14.3125c-11.523438-5.761719-23.554688-10.511719-35.882813-14.304688.128906-1.597656.296875-3.199218.296875-4.832031 0-12.296875-4.0625-24.488281-11.449219-34.3125l-4.207031-5.605469c15.558594-3.761718 31.550781-5.785156 47.65625-5.785156v-16c-16.199219 0-32.289062 1.921875-48 5.457031v-5.457031c0-6.496094-.671875-12.824219-1.742188-19.023438 24.316407-29.257812 38.652344-65.570312 41.207032-103.359374 30.207031 35.039062 48.535156 80.597656 48.535156 130.382812zm-104 152v-8h-16v8c0 4.414062-3.585938 8-8 8s-8-3.585938-8-8v-8h-16v8c0 4.414062-3.585938 8-8 8s-8-3.585938-8-8c0-13.230469 10.769531-24 24-24h32c13.230469 0 24 10.769531 24 24 0 4.414062-3.585938 8-8 8s-8-3.585938-8-8zm-144 0v-8h-16v8c0 4.414062-3.585938 8-8 8s-8-3.585938-8-8v-8h-16v8c0 4.414062-3.585938 8-8 8s-8-3.585938-8-8c0-13.230469 10.769531-24 24-24h32c13.230469 0 24 10.769531 24 24 0 4.414062-3.585938 8-8 8s-8-3.585938-8-8zm-64-98.296875c0-8.855469 2.929688-17.625 8.238281-24.703125l7.761719-10.328125v-.28125c12.6875 4.21875 24.984375 9.664063 36.65625 16.335937l2.398438 1.378907c-2.902344 3.75-5.421876 7.789062-7.550782 12.078125-15.96875.425781-31.902344 2.417968-47.472656 6.054687 0-.183593-.03125-.359375-.03125-.535156zm-19.824219-188.117187c27.566407 3.445312 53.800781 13.460937 76.59375 29.101562-22.847656 13.023438-40.617187 33.832031-49.808593 58.816406-18.546876-25.832031-29.320313-56.609375-30.792969-88.414062zm35.824219 126.414062c0-38.648438 23.007812-71.953125 56-87.160156v47.160156h16v-52.839844c5.183594-1.34375 10.519531-2.296875 16-2.753906v55.59375h16v-55.59375c5.480469.457031 10.816406 1.410156 16 2.753906v52.839844h16v-47.160156c32.992188 15.207031 56 48.511718 56 87.160156v9.695312c-15.472656 4.730469-30.464844 11.066407-44.59375 19.144532l-5.933594 3.398437c-12.410156-10.140625-28.242187-16.238281-45.472656-16.238281s-33.0625 6.097656-45.472656 16.230469l-5.933594-3.398438c-14.128906-8.070312-29.121094-14.40625-44.59375-19.144531zm231.832031-126.921875c-1.472656 31.816406-12.246093 62.585937-30.792969 88.417969-9.183593-24.976563-26.960937-45.792969-49.808593-58.816406 22.792969-15.648438 49.027343-25.65625 76.59375-29.105469zm-32.070312 163.921875c5.308593 7.078125 8.238281 15.839844 8.238281 24.703125 0 .183594-.03125.351563-.03125.535156-15.570312-3.644531-31.503906-5.628906-47.472656-6.054687-2.128906-4.289063-4.648438-8.328125-7.550782-12.078125l2.398438-1.378907c11.671875-6.671874 23.96875-12.117187 36.65625-16.335937v.28125zm-148.664063 84.121094c-7.066406-9.585938-11.097656-21.144532-11.097656-33.121094 0-20.542969 11.160156-38.496094 27.695312-48.238281l.664063 2.644531c2.496094 10.019531 10.121094 17.578125 19.640625 20.363281v25.230469c0 4.414062-3.585938 8-8 8s-8-3.585938-8-8h-16c0 13.230469 10.769531 24 24 24 6.167969 0 11.742188-2.40625 16-6.238281 4.257812 3.839843 9.832031 6.238281 16 6.238281 13.230469 0 24-10.769531 24-24h-16c0 4.414062-3.585938 8-8 8s-8-3.585938-8-8v-25.222656c9.519531-2.785156 17.144531-10.34375 19.640625-20.363282l.664063-2.644531c16.535156 9.734375 27.695312 27.6875 27.695312 48.230469 0 12.089844-3.871094 23.433594-10.984375 33.078125-14.472656 4.546875-29.609375 6.921875-45.015625 6.921875-15.367188 0-30.472656-2.359375-44.902344-6.878906zm44.902344-73.121094c-5.742188 0-10.726562-3.886719-12.128906-9.464844l-1.214844-4.863281c4.289062-1.046875 8.734375-1.671875 13.34375-1.671875s9.054688.625 13.34375 1.671875l-1.214844 4.863281c-1.402344 5.578125-6.386718 9.464844-12.128906 9.464844zm67.976562 63.679688c2.640626-7.574219 4.023438-15.589844 4.023438-23.679688 0-5.375-.640625-10.609375-1.761719-15.648438 12.921875.710938 25.792969 2.558594 38.394531 5.527344-3.097656 7.234375-8.191406 13.554688-14.953124 18.050782l-10.175782 6.789062c-5.007812 3.335938-10.214844 6.265625-15.527344 8.960938zm-138.214843-39.328126c-1.121094 5.039063-1.761719 10.273438-1.761719 15.648438 0 8.128906 1.414062 16.128906 4.054688 23.695312-5.320313-2.695312-10.542969-5.632812-15.558594-8.976562l-10.175782-6.789062c-6.761718-4.503907-11.855468-10.824219-14.953124-18.050782 12.609374-2.96875 25.472656-4.816406 38.394531-5.527344zm50.132812 70.335938c6.648438.800781 13.34375 1.3125 20.105469 1.3125s13.457031-.511719 20.105469-1.3125c-2.554688 5.265625-4.105469 11.089844-4.105469 17.3125 0 2.816406.574219 5.488281 1.472656 8h-34.953125c.90625-2.511719 1.480469-5.183594 1.480469-8 0-6.222656-1.550781-12.046875-4.105469-17.3125zm151.601563-285.191406-1.664063.207031c-33.199219 4.152344-64.59375 17.082031-91.167969 37.3125-12.070312-4.457031-25.054687-7.015625-38.664062-7.015625s-26.59375 2.558594-38.664062 7.023438c-26.574219-20.230469-57.96875-33.167969-91.167969-37.3125l-1.664063-.207032c35.183594-30.785156 81.183594-49.503906 131.496094-49.503906s96.3125 18.71875 131.496094 49.496094zm-331.496094 150.503906c0-49.785156 18.328125-95.34375 48.527344-130.382812 2.550781 37.789062 16.886718 74.101562 41.207031 103.359374-1.0625 6.199219-1.734375 12.527344-1.734375 19.023438v5.457031c-15.710938-3.535156-31.800781-5.457031-48-5.457031v16c16.105469 0 32.097656 2.023438 47.65625 5.785156l-4.207031 5.605469c-7.386719 9.824219-11.449219 22.015625-11.449219 34.3125 0 1.632813.167969 3.234375.296875 4.839844-12.328125 3.792969-24.351563 8.546875-35.882813 14.304687l7.160157 14.3125c10.363281-5.183594 21.167969-9.457031 32.234375-12.9375 4.175781 10.875 11.640625 20.363282 21.640625 27.023438l10.175781 6.792968c2.109375 1.402344 4.296875 2.65625 6.453125 3.960938h-2.078125c-22.054688 0-40 17.945312-40 40 0 2.816406.574219 5.488281 1.472656 8h-73.472656zm-32 192v-16h464v16zm0 0"/></svg>