<svg height="489pt" viewBox="-11 0 489 489.064" width="489pt" xmlns="http://www.w3.org/2000/svg"><g fill="#f0bc5e"><path d="m364.496094 353.945312.238281.160157c-7.117187 8.878906-15.597656 16.558593-25.277344 22.636719l-17.601562-26.316407-.160157-.320312c4.640626-2.882813 8.960938-6.320313 12.800782-10.160157 2.640625-2.640624 5.121094-5.519531 7.359375-8.640624zm0 0"/><path d="m391.777344 249.0625h.078125c-2.238281 10.480469-3.597657 21.203125-4.078125 32h-31.921875c.242187-10.796875 1.359375-21.519531 3.28125-32.078125l.320312.078125zm0 0"/><path d="m405.617188 146.585938 26.160156 19.597656c-7.203125 8.71875-13.519532 17.921875-19.042969 27.679687l-.238281-.160156-25.601563-19.199219-.71875-.398437c5.519531-9.761719 11.839844-19.121094 18.878907-28zm0 0"/><path d="m123.617188 49.0625c-12.640626 5.28125-24 12.960938-33.519532 22.480469-.082031.082031-.160156.160156-.242187.242187-20.160157-15.761718-43.28125-27.042968-67.917969-33.121094-1.523438-9.199218-2.320312-18.640624-2.320312-28.078124v-1.523438l13.199218 1.679688c33.199219 4.160156 64.640625 17.363281 90.800782 38.320312zm0 0"/><path d="m307.617188 9.0625v1.523438c0 9.4375-.800782 18.878906-2.320313 28.078124-24.640625 6.078126-47.761719 17.359376-67.921875 33.121094-9.597656-9.679687-21.039062-17.441406-33.757812-22.722656 26.160156-20.957031 57.597656-34.160156 90.796874-38.320312zm0 0"/><path d="m123.617188 395.382812v21.679688h-32c-8.800782 0-16-7.199219-16-16 0-4.398438 1.757812-8.398438 4.71875-11.277344 2.878906-2.960937 6.878906-4.722656 11.28125-4.722656h32l1.277343.320312c-.878906 3.203126-1.277343 6.5625-1.277343 10zm0 0"/><path d="m246.894531 405.785156c2.960938 2.878906 4.722657 6.878906 4.722657 11.277344 0 8.800781-7.203126 16-16 16h-32v-32h32c4.398437 0 8.398437 1.761719 11.277343 4.722656zm0 0"/><path d="m283.617188 340.265625v20.796875h-40c-8.800782 0-16-7.199219-16-16 0-4.398438 1.757812-8.398438 4.71875-11.277344 2.878906-2.960937 6.878906-4.722656 11.28125-4.722656h39.359374c.398438 3.679688.640626 7.441406.640626 11.203125zm0 0"/><path d="m102.894531 301.785156c2.960938 2.878906 4.722657 6.878906 4.722657 11.277344 0 8.800781-7.203126 16-16 16h-47.359376c1.117188-11.117188 4.078126-21.917969 8.636719-32h38.722657c4.398437 0 8.398437 1.761719 11.277343 4.722656zm0 0"/></g><path d="m123.617188 137.0625c0 4.417969-3.582032 8-8 8-4.417969 0-8-3.582031-8-8s3.582031-8 8-8c4.417968 0 8 3.582031 8 8zm0 0"/><path d="m219.617188 137.0625c0 4.417969-3.582032 8-8 8-4.417969 0-8-3.582031-8-8s3.582031-8 8-8c4.417968 0 8 3.582031 8 8zm0 0"/><path d="m442.648438 105.0625c-6.671876 0-12.945313 2.601562-17.65625 7.3125l-7.152344 7.152344c-45.28125 45.28125-70.222656 105.496094-70.222656 169.535156 0 32.578125-24.480469 59.488281-56 63.449219v-12.214844c0-30.609375-11.992188-59.394531-33.28125-80.761719l7.839843-5.222656c10-6.664062 17.464844-16.152344 21.640625-27.015625 11.0625 3.472656 21.863282 7.75 32.230469 12.933594l7.160156-14.308594c-11.527343-5.761719-23.550781-10.515625-35.878906-14.304687.128906-1.617188.289063-3.21875.289063-4.847657 0-12.296875-4.066407-24.480469-11.449219-34.3125l-4.207031-5.601562c15.558593-3.765625 31.550781-5.792969 47.65625-5.792969v-16c-16.203126 0-32.289063 1.921875-48 5.457031v-5.457031c0-6.496094-.671876-12.832031-1.746094-19.03125 26.921875-32.359375 41.746094-73.351562 41.746094-115.445312v-10.585938l-22.167969 2.769531c-33.210938 4.152344-64.59375 17.078125-91.167969 37.320313-12.074219-4.464844-25.058594-7.027344-38.664062-7.027344-13.609376 0-26.59375 2.5625-38.664063 7.027344-26.578125-20.234375-57.960937-33.167969-91.167969-37.320313l-22.167968-2.769531v10.585938c0 42.09375 14.824218 83.085937 41.742187 115.445312-1.070313 6.199219-1.742187 12.535156-1.742187 19.03125v5.457031c-15.714844-3.535156-31.800782-5.457031-48-5.457031v16c16.101562 0 32.09375 2.027344 47.65625 5.785156l-4.210938 5.601563c-7.382812 9.839843-11.445312 22.023437-11.445312 34.320312 0 1.628907.167968 3.230469.292968 4.839844-12.324218 3.789063-24.351562 8.542969-35.878906 14.300781l7.160156 14.3125c10.359375-5.183594 21.167969-9.453125 32.234375-12.933594 4.175781 10.871094 11.636719 20.351563 21.636719 27.015626l7.839844 5.222656c-21.292969 21.367187-33.285156 50.152344-33.285156 80.761718v74.886719c0 7.984375-4.441407 15.160157-11.578126 18.726563-12.597656 6.304687-20.421874 18.96875-20.421874 33.050781v6.109375c0 8.824219 7.175781 16 16 16h88c13.230468 0 24-10.765625 24-24v-8h64v8c0 13.234375 10.765624 24 24 24h88c8.824218 0 16-7.175781 16-16v-6.109375c0-14.082031-7.824219-26.746094-20.425782-33.042969-7.136718-3.574218-11.574218-10.75-11.574218-18.734375v-14.519531c58.023437-4.128906 104-52.535156 104-111.59375 0-49.453125 19.253906-95.941406 54.222656-130.910156l10.464844-10.464844c4.710937-4.710938 7.3125-10.984375 7.3125-17.65625 0-13.765625-11.203126-24.96875-24.96875-24.96875zm-185.351563 135.929688-10.175781 6.792968c-5.007813 3.335938-10.210938 6.261719-15.519532 8.957032 2.628907-7.574219 4.015626-15.582032 4.015626-23.679688 0-5.375-.640626-10.605469-1.761719-15.648438 12.921875.714844 25.785156 2.5625 38.390625 5.53125-3.09375 7.222657-8.191406 13.542969-14.949219 18.046876zm-138.578125 25.199218c-7.070312-9.582031-11.101562-21.144531-11.101562-33.128906 0-20.542969 11.152343-38.496094 27.695312-48.238281l.664062 2.65625c2.496094 10.015625 10.121094 17.574219 19.640626 20.359375v25.222656c0 4.410156-3.59375 8-8 8-4.410157 0-8-3.589844-8-8h-16c0 13.234375 10.765624 24 24 24 6.167968 0 11.742187-2.40625 16-6.238281 4.253906 3.839843 9.832031 6.238281 16 6.238281 13.230468 0 24-10.765625 24-24h-16c0 4.410156-3.59375 8-8 8-4.410157 0-8-3.589844-8-8v-25.222656c9.519531-2.785156 17.144531-10.34375 19.640624-20.359375l.664063-2.65625c16.542969 9.742187 27.695313 27.695312 27.695313 48.238281 0 12.097656-3.875 23.449219-10.984376 33.089844-14.472656 4.535156-29.609374 6.910156-45.015624 6.910156-15.359376 0-30.464844-2.359375-44.898438-6.871094zm44.898438-73.128906c-5.746094 0-10.730469-3.886719-12.121094-9.460938l-1.214844-4.867187c4.285156-1.054687 8.734375-1.671875 13.335938-1.671875 4.597656 0 9.054687.617188 13.335937 1.671875l-1.21875 4.867187c-1.390625 5.574219-6.375 9.460938-12.117187 9.460938zm103.757812-11c5.3125 7.082031 8.242188 15.847656 8.242188 24.707031 0 .183594-.03125.351563-.03125.535157-15.570313-3.648438-31.507813-5.632813-47.480469-6.058594-2.121094-4.285156-4.648438-8.324219-7.546875-12.078125l2.410156-1.375c11.671875-6.671875 23.96875-12.121094 36.65625-16.335938v.277344zm28.066406-163.414062 4-.496094c-1.472656 31.816406-12.25 62.582031-30.785156 88.421875-9.183594-24.972657-26.960938-45.789063-49.808594-58.8125 22.792969-15.65625 49.023438-25.664063 76.59375-29.113281zm-267.648437-.503907 4 .496094c27.566406 3.449219 53.792969 13.457031 76.589843 29.101563-22.847656 13.027343-40.621093 33.84375-49.808593 58.816406-18.542969-25.824219-29.308594-56.597656-30.78125-88.414063zm39.824219 126.917969c0-38.648438 23.007812-71.949219 56-87.160156v47.160156h16v-52.839844c5.183593-1.34375 10.519531-2.292968 16-2.75v55.589844h16v-55.589844c5.480468.457032 10.816406 1.414063 16 2.75v52.839844h16v-47.160156c32.992187 15.210937 56 48.511718 56 87.160156v9.699219c-15.472657 4.726562-30.464844 11.070312-44.59375 19.140625l-5.945313 3.394531c-12.40625-10.136719-28.230469-16.234375-45.460937-16.234375-17.234376 0-33.058594 6.097656-45.464844 16.234375l-5.945313-3.394531c-14.128906-8.070313-29.117187-14.40625-44.589843-19.140625zm-16 61.707031c0-8.847656 2.925781-17.625 8.238281-24.707031l7.761719-10.328125v-.277344c12.6875 4.214844 24.976562 9.664063 36.65625 16.335938l2.40625 1.375c-2.894532 3.753906-5.421876 7.792969-7.542969 12.078125-15.96875.425781-31.90625 2.417968-47.480469 6.058594-.007812-.183594-.039062-.359376-.039062-.535157zm3.367187 16.175781c12.609375-2.96875 25.472656-4.816406 38.390625-5.53125-1.117188 5.042969-1.757812 10.273438-1.757812 15.648438 0 8.128906 1.414062 16.128906 4.054687 23.699219-5.320313-2.699219-10.542969-5.632813-15.550781-8.976563l-10.175782-6.792968c-6.769531-4.503907-11.867187-10.824219-14.960937-18.046876zm76.632813 218.117188v-45.695312c0-17.917969 14.550781-33.3125 32-34.304688 17.648437 0 32 14.351562 32 32v48zm164.421874 7.160156c7.136719 3.570313 11.578126 10.746094 11.578126 18.730469v6.109375h-88c-4.410157 0-8-3.589844-8-8v-72c0-26.460938-21.519532-47.992188-48.425782-47.992188-.007812 0-.015625 0-.023437 0-26.214844 1.472657-47.550781 24.035157-47.550781 50.296876v69.695312c0 4.410156-3.59375 8-8 8h-88v-6.109375c0-7.984375 4.4375-15.160156 11.574218-18.730469 12.601563-6.300781 20.425782-18.964844 20.425782-33.046875v-74.886719c0-27.625 11.453124-53.425781 31.480468-72.042968 24.613282 13.632812 52.167969 20.816406 80.519532 20.816406 28.351562 0 55.902343-7.183594 80.519531-20.804688 20.023437 18.613282 31.480469 44.414063 31.480469 72.03125v74.886719c0 14.082031 7.824218 26.746094 20.421874 33.046875zm152.953126-311.847656-10.464844 10.464844c-37.992188 37.992187-58.910156 88.496094-58.910156 142.222656 0 50.234375-38.808594 91.503906-88 95.59375v-16c40.367187-4.023438 72-38.183594 72-79.59375 0-59.765625 23.277343-115.957031 65.535156-158.222656l7.152344-7.152344c1.695312-1.6875 3.941406-2.625 6.34375-2.625 4.945312 0 8.96875 4.027344 8.96875 8.96875 0 2.402344-.9375 4.648438-2.625 6.34375zm0 0"/></svg>