<svg height="496pt" viewBox="0 0 496 496" width="496pt" xmlns="http://www.w3.org/2000/svg"><path d="m384 312c-30.871094 0-56 25.121094-56 56 0 .71875.039062 1.433594.136719 2.847656l15.984375-.757812-.121094-2.089844c0-22.054688 17.945312-40 40-40s40 17.945312 40 40c0 12.6875-6.160156 24.761719-16.480469 32.296875l9.441407 12.917969c14.421874-10.535156 23.039062-27.429688 23.039062-45.214844 0-30.878906-25.128906-56-56-56zm0 0"/><path d="m328 160c0-6.167969-2.40625-11.742188-6.238281-16 3.839843-4.257812 6.238281-9.832031 6.238281-16 0-10.414062-6.710938-19.214844-16-22.527344v-56.984375c5.296875-.304687 10.625-.488281 16-.488281 13.230469 0 24-10.769531 24-24s-10.769531-24-24-24c-180.855469 0-328 147.144531-328 328v168h48v-168c0-143.566406 108.632812-262.175781 248-278.121094v55.59375c-9.289062 3.3125-16 12.113282-16 22.527344 0 6.167969 2.40625 11.742188 6.238281 16-3.839843 4.257812-6.238281 9.832031-6.238281 16 0 10.414062 6.710938 19.214844 16 22.527344v137.472656c-13.230469 0-24 10.769531-24 24v16h16v-16c0-4.40625 3.585938-8 8-8s8 3.59375 8 8v16h16v-16c0-7.0625-3.128906-13.359375-8-17.761719v-143.710937c9.289062-3.3125 16-12.113282 16-22.527344zm-312 200h16v16h-16zm0 120v-88h16v88zm16-152v16h-16v-16c0-172.039062 139.960938-312 312-312 4.414062 0 8 3.59375 8 8s-3.585938 8-8 8c-163.214844 0-296 132.785156-296 296zm272-160c-4.414062 0-8-3.59375-8-8s3.585938-8 8-8 8 3.59375 8 8-3.585938 8-8 8zm0-48c4.414062 0 8 3.59375 8 8s-3.585938 8-8 8-8-3.59375-8-8 3.585938-8 8-8zm0 0"/><path d="m208 432h-44c-28.671875 0-52-23.328125-52-52s23.328125-52 52-52c24.257812 0 44 19.734375 44 44v4h-16v-4c0-15.441406-12.558594-28-28-28-19.847656 0-36 16.152344-36 36s16.152344 36 36 36h44zm0 0"/><path d="m440 496h-168c-39.703125 0-72-32.296875-72-72s32.296875-72 72-72h8c48.441406 0 142.488281 35.304688 185.601562 92.808594 4.125 5.511718 6.398438 12.328125 6.398438 19.191406 0 17.648438-14.351562 32-32 32zm0 0" fill="#f0bc5e"/><path d="m376 416h16v16h-16zm0 0"/><path d="m472 464c-13.230469 0-24-10.769531-24-24s10.769531-24 24-24 24 10.769531 24 24-10.769531 24-24 24zm0-32c-4.414062 0-8 3.59375-8 8s3.585938 8 8 8 8-3.59375 8-8-3.585938-8-8-8zm0 0"/></svg>