<svg height="496pt" viewBox="0 -68 496.00046 496" width="496pt" xmlns="http://www.w3.org/2000/svg"><g fill="#f0bc5e"><path d="m326.03125 266.789062 11.953125-10.625 52.003906 58.5-11.953125 10.625zm0 0"/><path d="m291.945312 282.476562 11.957032-10.625 45.191406 50.855469-11.953125 10.621094zm0 0"/><path d="m254.804688 294.691406 11.953124-10.621094 34.335938 38.636719-11.953125 10.621094zm0 0"/><path d="m359.886719 120.972656-15.78125-2.621094c5.472656-32.816406 22.382812-62.792968 47.632812-84.433593l10.40625 12.144531c-22.382812 19.199219-37.398437 45.808594-42.257812 74.910156zm0 0"/><path d="m319.886719 105.300781-15.78125-2.621093c4.976562-29.882813 19.742187-57.90625 41.558593-78.914063l11.097657 11.527344c-19.351563 18.632812-32.449219 43.503906-36.875 70.007812zm0 0"/><path d="m279.886719 89.628906-15.78125-2.621094c4.71875-28.3125 17.71875-54.21875 37.582031-74.929687l11.546875 11.082031c-17.625 18.367188-29.152344 41.359375-33.347656 66.46875zm0 0"/><path d="m239.886719 81.300781-15.78125-2.621093c3.6875-22.160157 12.742187-43.410157 26.167969-61.449219l12.832031 9.558593c-11.914063 16.007813-19.9375 34.855469-23.21875 54.511719zm0 0"/><path d="m404.742188 160.691406 72-31.996094 6.5 14.628907-72 31.996093zm0 0"/><path d="m404.105469 206.953125 7.765625-13.980469 72.007812 39.996094-7.765625 13.980469zm0 0"/><path d="m408 175.992188h80v16h-80zm0 0"/><path d="m181.683594 255.644531 4.597656-15.324219 79.996094 23.996094-4.597656 15.324219zm0 0"/><path d="m172.117188 278.960938 7.765624-13.980469 72.007813 39.996093-7.765625 13.980469zm0 0"/><path d="m154.339844 293.644531 11.3125-11.3125 55.996094 55.996094-11.3125 11.3125zm0 0"/><path d="m96 31.992188h16v16h-16zm0 0"/><path d="m47.429688 58.730469 11.3125-11.3125 11.316406 11.3125-11.316406 11.316406zm0 0"/><path d="m32 95.992188h16v16h-16zm0 0"/><path d="m47.425781 149.242188 11.316407-11.3125 11.3125 11.3125-11.3125 11.316406zm0 0"/></g><path d="m128 143.992188v16c8.824219 0 16 7.175781 16 16 0 8.820312-7.175781 16-16 16v16c17.648438 0 32-14.355469 32-32 0-17.648438-14.351562-32-32-32zm0 0"/><path d="m112 167.992188h16v16h-16zm0 0"/><path d="m248 143.992188c-13.230469 0-24 10.765624-24 24 0 13.230468 10.769531 24 24 24 13.234375 0 24-10.769532 24-24 0-13.234376-10.765625-24-24-24zm0 32c-4.414062 0-8-3.585938-8-8 0-4.417969 3.585938-8 8-8 4.417969 0 8 3.582031 8 8 0 4.414062-3.582031 8-8 8zm0 0"/><path d="m304 167.992188h16v16h-16zm0 0"/><path d="m352 175.992188h16v16h-16zm0 0"/><path d="m479.046875 116.199219-1.175781-2.351563c-5.496094-11.015625-16.566406-17.855468-28.886719-17.855468h-1.199219c-6.769531 0-13.257812 2.078124-18.769531 6.015624l-31.847656 22.75c7.28125-20.953124 19.992187-39.792968 36.984375-54.359374l32.800781-28.105469-17.953125-2.238281c-41.976562-5.242188-83.855469-14.082032-124.472656-26.257813l-4.832032-1.453125c-9.640624-2.890625-19.613281-4.351562-29.679687-4.351562-38.09375 0-73.023437 21.367187-90.855469 54.324218-16.648437-38.4375-54.664062-63.300781-98-62.285156-53.65625 1.429688-99 46.222656-101.0781248 99.847656-1.1054692 28.574219 9.1835938 55.648438 28.9726568 76.207032 4.21875 4.382812 8.800781 8.257812 13.59375 11.777343l-15.007813 18.765625c-7.503906 9.394532-11.640625 21.183594-11.640625 33.191406 0 17.816407 8.839844 34.347657 23.664062 44.226563l38.585938 25.71875c10.023438 6.695313 21.695312 10.226563 33.75 10.226563 6.144531 0 12.183594-.945313 17.960938-2.730469l26.238281 26.242187c10.632812 10.636719 24.769531 16.488282 39.800781 16.488282s29.167969-5.851563 39.800781-16.488282l6.253907-6.257812c.402343-.398438.746093-.847656 1.144531-1.253906h50.832031c44.425781 0 88.800781-5.464844 131.90625-16.242188l12.824219-3.199219-65.695313-73.898437c1.085938-.957032 2.238282-1.832032 3.308594-2.8125l6.671875-6.121094 44.921875 38.496094c5.855469 5.007812 13.3125 7.777344 21.015625 7.777344 12.320313 0 23.390625-6.84375 28.871094-17.84375l1.191406-2.375c11.097656-22.183594 16.953125-47 16.953125-71.78125 0-24.785157-5.855469-49.601563-16.953125-71.792969zm-189.03125-92.207031c8.496094 0 16.9375 1.230468 25.074219 3.679687l4.832031 1.453125c35.75 10.722656 72.453125 18.898438 109.351563 24.386719l-5.527344 4.742187c-22.523438 19.304688-38.34375 45.25-45.402344 73.90625-48.269531-35.96875-105.992188-56.746094-166.40625-59.722656 14.613281-29.289062 44.917969-48.445312 78.078125-48.445312zm-59.269531 301.941406-6.257813 6.257812c-7.617187 7.613282-17.726562 11.800782-28.488281 11.800782-10.757812 0-20.871094-4.1875-28.488281-11.800782l-22.183594-22.183594c.136719-.089843.289063-.144531.417969-.242187 27.972656-18.65625 47.789062-46.335937 56.789062-77.785156h20.488282c8.679687 0 17.167968 3.523437 23.3125 9.65625 6.144531 6.152343 9.664062 14.640625 9.664062 23.320312 0 23.035157-8.96875 44.6875-25.253906 60.976563zm178.375-18.648438c-37.761719 8.441406-76.410156 12.707032-115.089844 12.707032h-38.160156c5.417968-8.441407 9.53125-17.585938 12.234375-27.210938 33.808593-5.789062 65.367187-19.445312 92.558593-40.007812zm-43.5625-79.246094c-26.613282 24.390626-59.007813 40.75-94.175782 47.886719.386719-3.625.617188-7.273437.617188-10.96875 0-13.078125-5.09375-25.375-14.34375-34.621093-9.246094-9.25-21.542969-14.34375-34.625-14.34375h-16.910156c1.199218-7.386719 1.878906-14.90625 1.878906-22.53125v-9.46875h-16v9.46875c0 41.488281-20.609375 79.984374-55.128906 103-14.78125 9.855468-34.964844 9.855468-49.75 0l-38.585938-25.71875c-7.390625-4.9375-12.613281-12.265626-15.015625-20.574219 17.914063 3.789062 36.167969 5.824219 54.480469 5.824219v-16c-18.671875 0-37.296875-2.234376-55.464844-6.425782 1.066406-6.167968 3.671875-12.023437 7.601563-16.945312l16.191406-20.230469c14.550781 7.527344 30.753906 11.601563 47.671875 11.601563v-16c-24.152344 0-46.671875-9.585938-63.421875-26.992188-16.746094-17.402344-25.449219-40.304688-24.511719-64.496094 1.757813-45.371094 40.125-83.257812 85.519532-84.472656 41.429687-1.167969 77.214843 26.015625 87.511718 65.960938l1.550782 6h6.199218c72.242188 0 141.367188 26.878906 194.625 75.703124l8.527344 7.808594v24.964844zm99.195312 24.566407-1.195312 2.386719c-2.773438 5.542968-8.359375 9-14.574219 9-3.878906 0-7.648437-1.394532-10.601563-3.929688l-43.445312-37.242188 21.0625-19.316406v-39.035156l-13.710938-12.574219c-2.296874-2.105469-4.65625-4.113281-7.007812-6.136719l43.03125-30.734374c2.785156-1.984376 6.054688-3.03125 9.472656-3.03125h1.199219c6.214844 0 11.800781 3.453124 14.574219 9.015624l1.179687 2.359376c9.988281 19.96875 15.261719 42.320312 15.261719 64.625 0 22.300781-5.273438 44.652343-15.246094 64.613281zm0 0"/></svg>