<svg height="496pt" viewBox="0 0 496 496" width="496pt" xmlns="http://www.w3.org/2000/svg"><path d="m376 240c0-30.871094-25.128906-56-56-56-.183594 0-.382812 0-.566406 0-3.890625-27.105469-27.265625-48-55.433594-48-4.320312 0-8.585938.496094-12.769531 1.488281-8.816407-20.0625-28.847657-33.488281-51.230469-33.488281s-42.414062 13.425781-51.230469 33.488281c-4.183593-.992187-8.449219-1.488281-12.769531-1.488281-28.167969 0-51.535156 20.894531-55.433594 48-.183594 0-.382812 0-.566406 0-30.871094 0-56 25.128906-56 56 0 9.839844 2.59375 19.527344 7.496094 28.023438l64.503906-4.023438 16 48h176s15.710938-43.566406 16.351562-47.976562l64.144532 4c4.910156-8.496094 7.503906-18.183594 7.503906-28.023438zm0 0" fill="#f0bc5e"/><path d="m136 248v-16c17.984375 0 33.839844-12.144531 38.558594-29.511719l15.441406 4.183594c-6.601562 24.335937-28.816406 41.328125-54 41.328125zm0 0"/><path d="m24 152c-13.230469 0-24-10.769531-24-24s10.769531-24 24-24 24 10.769531 24 24-10.769531 24-24 24zm0-32c-4.414062 0-8 3.585938-8 8s3.585938 8 8 8 8-3.585938 8-8-3.585938-8-8-8zm0 0"/><path d="m96 64c-17.648438 0-32-14.351562-32-32s14.351562-32 32-32 32 14.351562 32 32-14.351562 32-32 32zm0-48c-8.824219 0-16 7.175781-16 16s7.175781 16 16 16 16-7.175781 16-16-7.175781-16-16-16zm0 0"/><path d="m336 112c-17.648438 0-32-14.351562-32-32s14.351562-32 32-32 32 14.351562 32 32-14.351562 32-32 32zm0-48c-8.824219 0-16 7.175781-16 16s7.175781 16 16 16 16-7.175781 16-16-7.175781-16-16-16zm0 0"/><path d="m408 192c-13.230469 0-24-10.769531-24-24s10.769531-24 24-24 24 10.769531 24 24-10.769531 24-24 24zm0-32c-4.414062 0-8 3.585938-8 8s3.585938 8 8 8 8-3.585938 8-8-3.585938-8-8-8zm0 0"/><path d="m248 176h16v16h-16zm0 0"/><path d="m64 224h16v16h-16zm0 0"/><path d="m192 144h16v16h-16zm0 0"/><path d="m208 264h16v16h-16zm0 0"/><path d="m96 376h184v16h-184zm0 0"/><path d="m298.230469 256-4.65625 13.960938c-8.503907-7.480469-13.574219-18.25-13.574219-29.792969l.03125-.640625-15.992188-.527344-.039062 1c0 18.617188 9.144531 35.679688 24.214844 46.054688l-5.984375 17.945312h-164.460938l-16-48h-94.992187l31.34375 219.398438c1.679687 11.746093 11.886718 20.601562 23.75 20.601562h276.25c7.054687 0 13.726562-3.113281 18.304687-8.519531l-12.21875-10.328125c-1.527343 1.808594-3.742187 2.847656-6.078125 2.847656h-276.257812c-3.949219 0-7.359375-2.953125-7.910156-6.863281l-11.59375-81.136719h37.632812v-16h-39.910156l-2.289063-16h250.199219v-16h-252.488281l-10.289063-72h65.007813l16 48h187.53125l16-48h65.007812l-1 6.984375 15.839844 2.261719 3.613281-25.246094zm0 0"/><path d="m384 496c-61.761719 0-112-50.238281-112-112s50.238281-112 112-112 112 50.238281 112 112-50.238281 112-112 112zm0 0" fill="#f0bc5e"/><path d="m384 360c-13.230469 0-24-10.769531-24-24s10.769531-24 24-24 24 10.769531 24 24-10.769531 24-24 24zm0-32c-4.414062 0-8 3.585938-8 8s3.585938 8 8 8 8-3.585938 8-8-3.585938-8-8-8zm0 0"/><path d="m333.089844 381.089844c-6.410156 0-12.441406-2.496094-16.96875-7.035156-4.527344-4.519532-7.03125-10.550782-7.03125-16.964844 0-6.410156 2.496094-12.441406 7.03125-16.96875 9.070312-9.066406 24.878906-9.066406 33.933594 0h.007812c4.53125 4.535156 7.027344 10.558594 7.027344 16.96875 0 6.414062-2.496094 12.445312-7.035156 16.972656-4.527344 4.523438-10.550782 7.027344-16.964844 7.027344zm0-32c-2.136719 0-4.144532.832031-5.65625 2.34375-1.503906 1.511718-2.34375 3.519531-2.34375 5.65625 0 2.140625.832031 4.140625 2.34375 5.644531 3.039062 3.035156 8.292968 3.042969 11.300781.007813 1.523437-1.511719 2.355469-3.511719 2.355469-5.652344 0-2.136719-.832032-4.144532-2.347656-5.65625h-.007813c-1.511719-1.523438-3.511719-2.34375-5.644531-2.34375zm0 0"/><path d="m434.910156 381.089844c-6.414062 0-12.445312-2.496094-16.972656-7.035156-4.523438-4.519532-7.027344-10.550782-7.027344-16.964844 0-6.410156 2.496094-12.441406 7.035156-16.96875 9.039063-9.066406 24.863282-9.066406 33.933594 0 4.527344 4.527344 7.03125 10.558594 7.03125 16.96875 0 6.414062-2.496094 12.4375-7.03125 16.964844v.007812c-4.535156 4.53125-10.558594 7.027344-16.96875 7.027344zm0-32c-2.140625 0-4.140625.832031-5.644531 2.34375-1.511719 1.511718-2.355469 3.519531-2.355469 5.65625 0 2.140625.832032 4.140625 2.347656 5.644531 3.023438 3.050781 8.277344 3.035156 11.308594.007813v-.007813c1.511719-1.503906 2.34375-3.503906 2.34375-5.644531 0-2.136719-.832031-4.144532-2.34375-5.65625-1.511718-1.511719-3.519531-2.34375-5.65625-2.34375zm0 0"/><path d="m384 456c-31.398438 0-56-17.566406-56-40s24.601562-40 56-40 56 17.566406 56 40-24.601562 40-56 40zm0-64c-21.679688 0-40 10.992188-40 24s18.320312 24 40 24 40-10.992188 40-24-18.320312-24-40-24zm0 0"/></svg>