<svg height="496pt" viewBox="-56 0 496 496" width="496pt" xmlns="http://www.w3.org/2000/svg"><path d="m328 24h56v224h-56zm0 0" fill="#f0bc5e"/><path d="m184 240h-128c-13.230469 0-24-10.769531-24-24v-160c0-13.230469 10.769531-24 24-24h128c13.230469 0 24 10.769531 24 24v160c0 13.230469-10.769531 24-24 24zm0 0" fill="#f0bc5e"/><path d="m64 64h16v16h-16zm0 0"/><path d="m96 64h16v16h-16zm0 0"/><path d="m128 64h16v16h-16zm0 0"/><path d="m160 64h16v16h-16zm0 0"/><path d="m64 96h16v16h-16zm0 0"/><path d="m96 96h16v16h-16zm0 0"/><path d="m128 96h16v16h-16zm0 0"/><path d="m160 96h16v16h-16zm0 0"/><path d="m64 128h16v16h-16zm0 0"/><path d="m96 128h16v16h-16zm0 0"/><path d="m128 128h16v16h-16zm0 0"/><path d="m160 128h16v16h-16zm0 0"/><path d="m64 160h16v16h-16zm0 0"/><path d="m96 160h16v16h-16zm0 0"/><path d="m128 160h16v16h-16zm0 0"/><path d="m160 160h16v16h-16zm0 0"/><path d="m64 192h16v16h-16zm0 0"/><path d="m96 192h16v16h-16zm0 0"/><path d="m128 192h16v16h-16zm0 0"/><path d="m160 192h16v16h-16zm0 0"/><path d="m200 0h-160c-22.054688 0-40 17.945312-40 40v192c0 22.054688 17.945312 40 40 40h16c13.230469 0 24 10.769531 24 24v158.625c0 21.167969 15.855469 39.253906 36.097656 41.183594 1.269532.128906 2.550782.191406 3.8125.191406 9.945313 0 19.609375-3.6875 26.992188-10.398438 8.320312-7.5625 13.097656-18.363281 13.097656-29.601562v-160c0-13.230469 10.769531-24 24-24h16c22.054688 0 40-17.945312 40-40v-192c0-22.054688-17.945312-40-40-40zm24 232c0 13.230469-10.769531 24-24 24h-16c-22.054688 0-40 17.945312-40 40v160c0 6.753906-2.863281 13.222656-7.863281 17.769531-5.066407 4.597657-11.640625 6.726563-18.519531 6.125-12.121094-1.160156-21.617188-12.261719-21.617188-25.269531v-158.625c0-22.054688-17.945312-40-40-40h-16c-13.230469 0-24-10.769531-24-24v-192c0-13.230469 10.769531-24 24-24h160c13.230469 0 24 10.769531 24 24zm0 0"/><path d="m112 448h16v16h-16zm0 0"/><path d="m384 32v-16h-48c0-8.824219-7.175781-16-16-16h-48c-8.824219 0-16 7.175781-16 16v456c0 13.230469 10.769531 24 24 24s24-10.769531 24-24v-200h16c8.824219 0 16-7.175781 16-16h48v-16h-48v-16h48v-16h-48v-16h48v-16h-48v-16h48v-16h-48v-16h48v-16h-48v-16h48v-16h-48v-16h48v-16h-48v-16zm-64 224h-16c-8.824219 0-16 7.175781-16 16v200c0 4.414062-3.59375 8-8 8s-8-3.585938-8-8v-456h48zm0 0"/></svg>