<svg height="495pt" viewBox="-47 0 495 495.848" width="495pt" xmlns="http://www.w3.org/2000/svg"><path d="m352.425781 415.847656h-304v-240h304zm0 0" fill="#f0bc5e"/><path d="m360.425781 100.953125v-100.921875l-29.761719 21.878906-21.761718-16-21.71875 16-21.71875-16-21.710938 16-21.699218-16-21.71875 16-21.71875-16-21.707032 16-21.695312-16-21.703125 16-21.695313-16-21.695312 16-29.695313-21.910156v100.953125l-40 48v290.894531c0 30.878906 25.117188 56 56 56h288c30.878907 0 56-25.121094 56-56v-290.894531zm-304-69.257813 13.671875 10.097657 21.703125-16 21.6875 16 21.710938-16 21.695312 16 21.707031-16 21.71875 16 21.710938-16 21.695312 16 21.722657-16 21.71875 16 21.726562-16 21.753907 16 13.777343-10.128907v64.183594h-288zm288 448.152344h-288c-19.3125 0-35.472656-13.769531-39.195312-32h287.195312v-16h-288v-272h288v-16h-278.921875l26.664063-32h296.503906l26.664063 32h-54.910157v16h64v272h-64v16h63.191407c-3.722657 18.230469-19.882813 32-39.191407 32zm0 0"/><path d="m80.425781 289.214844c0 16.898437 13.734375 30.632812 30.628907 30.632812 8.175781 0 15.875-3.183594 21.65625-8.976562l15.023437-15.023438h105.378906l15.023438 15.023438c5.792969 5.792968 13.480469 8.976562 21.65625 8.976562 16.894531 0 30.632812-13.734375 30.632812-30.632812 0-8.175782-3.1875-15.871094-8.976562-21.65625l-3.714844-3.710938 3.714844-3.710937c5.789062-5.792969 8.976562-13.480469 8.976562-21.65625 0-16.894531-13.738281-30.632813-30.632812-30.632813-8.175781 0-15.871094 3.183594-21.65625 8.976563l-15.023438 15.023437h-105.378906l-15.023437-15.023437c-5.789063-5.792969-13.480469-8.976563-21.65625-8.976563-16.894532 0-30.628907 13.738282-30.628907 30.632813 0 8.175781 3.183594 15.871093 8.972657 21.65625l3.714843 3.710937-3.714843 3.710938c-5.789063 5.792968-8.972657 13.480468-8.972657 21.65625zm20.285157-40.390625c-2.765626-2.769531-4.285157-6.441407-4.285157-10.34375 0-8.074219 6.558594-14.632813 14.628907-14.632813 3.90625 0 7.578124 1.519532 10.34375 4.289063l19.714843 19.710937h118.621094l19.714844-19.710937c2.765625-2.769531 6.4375-4.289063 10.34375-4.289063 8.070312 0 14.632812 6.558594 14.632812 14.632813 0 3.902343-1.523437 7.574219-4.289062 10.34375l-15.023438 15.023437 15.023438 15.023438c2.765625 2.769531 4.289062 6.441406 4.289062 10.34375 0 8.074218-6.5625 14.632812-14.632812 14.632812-3.90625 0-7.578125-1.519531-10.34375-4.289062l-19.714844-19.710938h-118.621094l-19.714843 19.710938c-2.765626 2.769531-6.4375 4.289062-10.34375 4.289062-8.070313 0-14.628907-6.558594-14.628907-14.632812 0-3.902344 1.519531-7.574219 4.285157-10.34375l15.023437-15.023438zm0 0"/><path d="m88.425781 367.847656h224v16h-224zm0 0"/><path d="m88.425781 335.847656h224v16h-224zm0 0"/></svg>