<svg height="496pt" viewBox="0 0 496 496" width="496pt" xmlns="http://www.w3.org/2000/svg"><path d="m486.328125 203.519531-205.160156-190.496093c-9.046875-8.398438-20.832031-13.023438-33.167969-13.023438s-24.121094 4.625-33.167969 13.023438l-205.160156 190.503906c-6.152344 5.710937-9.671875 13.800781-9.671875 22.191406 0 16.695312 13.585938 30.28125 30.28125 30.28125h1.007812c7.640626 0 14.933594-2.855469 20.535157-8.03125l4.175781-3.847656v19.878906h16v184h-12.945312l-24 48h425.890624l-24-48h-12.945312v-184h16v-19.886719l4.167969 3.847657c5.601562 5.183593 12.894531 8.039062 20.535156 8.039062h1.007813c16.703124 0 30.289062-13.585938 30.289062-30.28125 0-8.390625-3.519531-16.480469-9.671875-22.199219zm-398.328125 60.480469h16v184h-16zm94.160156 0c-26.992187 13.902344-48.574218 35.839844-62.160156 62.222656v-62.222656zm244.894532 200 8 16h-374.109376l8-16zm-51.054688-137.769531c-13.574219-26.390625-35.167969-48.320313-62.160156-62.230469h62.160156zm16 121.769531v-184h16v184zm32-200h-120v11.382812c-2.585938-1.09375-5.167969-2.183593-7.832031-3.136718l-5.34375 15.082031c50.945312 18.085937 85.175781 66.574219 85.175781 120.671875v56h-256v-56c0-54.097656 34.230469-102.59375 85.183594-120.664062l-5.34375-15.078126c-2.671875.941407-5.253906 2.039063-7.839844 3.132813v-11.390625h-120v-16h104v-16h-89.535156l161.535156-149.113281 161.542969 149.113281h-89.542969v16h104zm41.71875-8h-1.007812c-3.597657 0-7.039063-1.34375-9.679688-3.792969l-207.03125-191.09375-207.03125 191.101563c-2.640625 2.441406-6.082031 3.785156-9.679688 3.785156h-1.007812c-7.875 0-14.28125-6.40625-14.28125-14.28125 0-3.957031 1.664062-7.773438 4.558594-10.472656l205.160156-190.492188c12.160156-11.28125 32.410156-11.289062 44.5625 0l205.160156 190.492188c2.894532 2.699218 4.558594 6.515625 4.558594 10.472656 0 7.875-6.40625 14.28125-14.28125 14.28125zm0 0"/><path d="m248 288c-44.113281 0-80-35.886719-80-80s35.886719-80 80-80 80 35.886719 80 80-35.886719 80-80 80zm0 0" fill="#f0bc5e"/><path d="m248 256c-22.054688 0-40-14.351562-40-32s17.945312-32 40-32 40 14.351562 40 32-17.945312 32-40 32zm0-48c-13.007812 0-24 7.328125-24 16s10.992188 16 24 16 24-7.328125 24-16-10.992188-16-24-16zm0 0"/><path d="m256 168c0 4.417969-3.582031 8-8 8s-8-3.582031-8-8 3.582031-8 8-8 8 3.582031 8 8zm0 0"/><path d="m224 184c0 4.417969-3.582031 8-8 8s-8-3.582031-8-8 3.582031-8 8-8 8 3.582031 8 8zm0 0"/><path d="m288 184c0 4.417969-3.582031 8-8 8s-8-3.582031-8-8 3.582031-8 8-8 8 3.582031 8 8zm0 0"/></svg>