<svg height="496pt" viewBox="0 0 496 496" width="496pt" xmlns="http://www.w3.org/2000/svg"><g fill="#f0bc5e"><path d="m160 31.945312v17.4375c0 54.082032-27.039062 104.5625-72 134.5625-11.761719-19.601562-19.359375-41.28125-22.480469-63.761718v-.078125l3.441407-8.5625c12.480468-31.199219 32.71875-58.558594 58.960937-79.519531.476563 0 .957031-.078126 1.4375-.078126zm0 0"/><path d="m286.480469 120.105469v.078125c-3.121094 22.480468-10.71875 44.160156-22.480469 63.761718-44.960938-30-72-80.480468-72-134.5625v-17.4375h30.640625c.480469 0 .960937.078126 1.4375.078126 26.242187 20.960937 46.480469 48.320312 58.960937 79.519531zm0 0"/><path d="m80.558594 253.625c18.640625 9.039062 31.441406 28.160156 31.441406 50.320312 0 30.960938-25.039062 56-56 56v-20.082031c0-30.71875 8.640625-60.558593 24.558594-86.238281zm0 0"/><path d="m296 351.945312v64l-4.480469 15.679688c-20-2.160156-35.519531-19.121094-35.519531-39.679688 0-22.082031 17.921875-40 40-40zm0 0"/><path d="m439.039062 199.945312c9.359376 0 16.960938 7.597657 16.960938 16.960938 0 4.476562-1.761719 8.796875-4.960938 12l-3.039062 3.039062 3.039062 3.039063c3.199219 3.199219 4.960938 7.519531 4.960938 12 0 9.359375-7.601562 16.960937-16.960938 16.960937-4.480468 0-8.800781-1.761718-12-4.960937l-11.039062-11.039063h-48l-11.039062 11.039063c-3.199219 3.199219-7.519532 4.960937-12 4.960937-9.359376 0-16.960938-7.601562-16.960938-16.960937 0-4.480469 1.761719-8.800781 4.960938-12l3.039062-3.039063-3.039062-3.039062c-3.199219-3.203125-4.960938-7.523438-4.960938-12 0-9.363281 7.601562-16.960938 16.960938-16.960938 4.480468 0 8.800781 1.757813 12 4.960938l11.039062 11.039062h48l11.039062-11.039062c3.199219-3.203125 7.519532-4.960938 12-4.960938zm0 0"/><path d="m352 367.945312v-40.097656c-38.503906-16.0625-64-53.902344-64-95.902344 0-57.34375 46.65625-104 104-104s104 46.65625 104 104c0 54.785157-42.167969 99.75-96.519531 103.617188zm0 0"/></g><path d="m232 103.945312h16v16h-16zm0 0"/><path d="m104 103.945312h16v16h-16zm0 0"/><path d="m479.6875 413.746094c-1.519531-8.050782-11.542969-13.089844-33.734375-16.992188-34.769531-6.113281-89.144531-6.113281-123.90625 0-7.34375 1.285156-13.214844 2.726563-18.046875 4.328125v-61.257812c0-43.054688-15.894531-83.574219-44.632812-115.238281 7.554687-11 12.160156-24.175782 12.601562-38.394532 7.558594-12.949218 13.183594-26.710937 17.207031-40.992187 3.640625 4.175781 8.894531 6.746093 14.6875 6.746093 8.214844 0 15.625-5.183593 18.441407-12.914062l28.085937-77.253906c1.066406-2.9375 1.609375-6.007813 1.609375-9.136719 0-11-6.601562-20.753906-16.816406-24.839844l-63.496094-25.390625c-12.589844-5.042968-27.464844-1.992187-37.0625 7.605469l-13.992188 13.992187-89.320312-.0625-13.9375-13.9375c-9.597656-9.597656-24.472656-12.640624-37.0625-7.605468l-63.488281 25.398437c-10.222657 4.085938-16.824219 13.832031-16.824219 24.839844 0 3.128906.542969 6.199219 1.609375 9.144531l28.09375 77.253906c2.808594 7.722657 10.21875 12.90625 18.433594 12.90625 5.792969 0 11.039062-2.570312 14.6875-6.746093 4.023437 14.28125 9.648437 28.042969 17.207031 40.992187.441406 14.21875 5.046875 27.394532 12.601562 38.394532-28.738281 31.664062-44.632812 72.183593-44.632812 115.238281v82.230469c0 7.984374-4.441406 15.160156-11.574219 18.730468-12.601562 6.304688-20.425781 18.96875-20.425781 33.046875v6.113281c0 8.824219 7.175781 16 16 16h88c13.230469 0 24-10.769531 24-24v-8h64v8c0 13.230469 10.769531 24 24 24h264v-24zm-95.6875-5.800782c33.367188 0 61.558594 4.070313 74.320312 8-12.761718 3.925782-40.953124 8-74.320312 8s-61.558594-4.074218-74.320312-8c12.761718-3.929687 40.953124-8 74.320312-8zm-138.0625-386.625c5.125-5.128906 13.070312-6.769531 19.804688-4.0625l63.503906 25.398438c4.097656 1.640625 6.753906 5.558594 6.753906 9.984375 0 1.257813-.214844 2.496094-.648438 3.671875l-28.085937 77.25c-1.027344 2.832031-5.640625 2.894531-6.761719.109375l-10.054687-25.136719c-11.847657-29.628906-30.648438-56.125-54.617188-77.109375zm-201.203125 112.25-28.085937-77.25c-.433594-1.183593-.648438-2.421874-.648438-3.679687 0-4.425781 2.65625-8.335937 6.761719-9.984375l63.496093-25.398438c2.183594-.875 4.46875-1.3125 6.820313-1.3125 4.90625 0 9.523437 1.910157 12.992187 5.375l10.097657 10.097657c-23.976563 20.992187-42.769531 47.488281-54.617188 77.109375l-10.046875 25.136718c-1.128906 2.792969-5.734375 2.71875-6.769531-.09375zm29.097656-12.65625 2.574219-6.433593c11.59375-28.992188 30.449219-54.679688 54.539062-74.535157l90.125.015626c24.074219 19.847656 42.929688 45.527343 54.523438 74.519531l2.574219 6.433593c-3.113281 20.917969-10.128907 40.75-21.023438 58.917969l-1.144531 1.898438v2.214843c0 22.671876-13.566406 42.199219-32.992188 51 .585938-2.25.992188-4.570312.992188-7v-4h-16v4c0 6.617188-5.382812 12-12 12s-12-5.382812-12-12v-21.320312c4.207031-1.289062 8.113281-3.480469 11.3125-6.679688l7.03125-7.03125c3.648438-3.648437 5.65625-8.496093 5.65625-13.65625 0-10.648437-8.664062-19.3125-19.3125-19.3125h-25.375c-10.648438 0-19.3125 8.664063-19.3125 19.3125 0 5.160157 2.007812 10.007813 5.65625 13.65625l7.03125 7.03125c3.199219 3.199219 7.105469 5.390626 11.3125 6.679688v21.320312c0 6.617188-5.382812 12-12 12s-12-5.382812-12-12v-4h-16v4c0 2.429688.40625 4.75.992188 7-19.425782-8.800781-32.992188-28.328124-32.992188-51v-2.214843l-1.144531-1.90625c-10.894531-18.160157-17.902344-37.992188-21.023438-58.910157zm94.167969 67.71875-7.03125-7.03125c-.617188-.617187-.96875-1.472656-.96875-2.34375 0-1.824218 1.488281-3.3125 3.3125-3.3125h25.375c1.824219 0 3.3125 1.488282 3.3125 3.3125 0 .871094-.351562 1.726563-.96875 2.34375l-7.03125 7.03125c-4.207031 4.207032-11.792969 4.207032-16 0zm22.238281 67.3125-2.949219 14.742188c-1.074218 5.359375-5.816406 9.257812-11.289062 9.257812s-10.214844-3.898437-11.296875-9.257812l-2.941406-14.742188zm-46.238281 192v-72c0-17.648437 14.351562-32 32-32s32 14.351563 32 32v72zm80 24v-96c0-26.472656-21.527344-48-48-48s-48 21.527344-48 48v96c0 4.40625-3.59375 8-8 8h-88v-6.113281c0-7.984375 4.441406-15.160156 11.574219-18.726562 12.601562-6.304688 20.425781-18.96875 20.425781-33.050781v-82.230469c0-38.398438 13.945312-74.582031 39.183594-103.085938 11.320312 10.476563 25.96875 17.390625 42.191406 18.878907l3.640625 18.207031c2.570313 12.816406 13.914063 22.121093 26.984375 22.121093s24.414062-9.304687 26.984375-22.121093l3.640625-18.207031c16.222656-1.488282 30.871094-8.402344 42.191406-18.878907 25.238282 28.503907 39.183594 64.6875 39.183594 103.085938v75l-15.6875 54.921875-.175781 10.199218h-40.136719c-4.40625 0-8-3.59375-8-8zm256 8h-192v-6.878906l12.425781-43.496094c5.300781 2.132813 12.40625 3.949219 21.613281 5.566407 17.394532 3.054687 39.96875 4.808593 61.960938 4.808593s44.566406-1.753906 61.953125-4.808593c9.207031-1.617188 16.320313-3.433594 21.613281-5.566407l12.433594 43.496094zm0 0"/><path d="m376 455.945312h16v16h-16zm0 0"/><path d="m344 455.945312h16v16h-16zm0 0"/><path d="m408 455.945312h16v16h-16zm0 0"/><path d="m320 216.914062c0 5.496094 1.761719 10.71875 5.023438 15.03125-3.261719 4.3125-5.023438 9.535157-5.023438 15.03125 0 13.769532 11.199219 24.96875 24.96875 24.96875 6.671875 0 12.941406-2.601562 17.65625-7.3125l8.6875-8.6875h41.375l8.6875 8.6875c4.714844 4.710938 10.984375 7.3125 17.65625 7.3125 13.769531 0 24.96875-11.199218 24.96875-24.96875 0-5.496093-1.761719-10.71875-5.023438-15.03125 3.261719-4.3125 5.023438-9.535156 5.023438-15.03125 0-13.769531-11.199219-24.96875-24.96875-24.96875-6.671875 0-12.941406 2.597657-17.65625 7.3125l-8.6875 8.6875h-41.375l-8.6875-8.6875c-4.714844-4.714843-10.984375-7.3125-17.65625-7.3125-13.769531 0-24.96875 11.199219-24.96875 24.96875zm44.6875 7.03125h54.625l13.375-13.375c1.695312-1.691406 3.945312-2.625 6.34375-2.625 4.945312 0 8.96875 4.023438 8.96875 8.96875 0 2.398438-.9375 4.648438-2.625 6.34375l-8.6875 8.6875 8.6875 8.6875c1.6875 1.695313 2.625 3.945313 2.625 6.34375 0 4.945313-4.023438 8.96875-8.96875 8.96875-2.398438 0-4.648438-.9375-6.34375-2.625l-13.375-13.375h-54.625l-13.375 13.375c-1.695312 1.6875-3.945312 2.625-6.34375 2.625-4.945312 0-8.96875-4.023437-8.96875-8.96875 0-2.398437.9375-4.648437 2.625-6.34375l8.6875-8.6875-8.6875-8.6875c-1.6875-1.695312-2.625-3.945312-2.625-6.34375 0-4.945312 4.023438-8.96875 8.96875-8.96875 2.398438 0 4.648438.933594 6.34375 2.625zm0 0"/></svg>