<svg height="496pt" viewBox="-20 0 496 496" width="496pt" xmlns="http://www.w3.org/2000/svg"><path d="m312 176h16v144h-16zm0 0"/><path d="m376 176h16v144h-16zm0 0"/><g fill="#f0bc5e"><path d="m67.199219 354.078125 44.800781 28.242187 32.640625 20.640626 69.199219 43.679687c-2.558594 9.519531-7.601563 18-14.398438 24.800781-2.800781 2.796875-5.839844 5.277344-9.203125 7.359375l-78.238281-53.519531-32.640625-22.402344-39.359375-26.878906 16-16v-13.039062zm0 0"/><path d="m168 248v37.039062l-56.160156 38.480469-44.640625 30.558594-11.199219-7.117187v-30.320313l55.121094-34.800781 53.597656-33.839844zm0 0"/><path d="m168 210.960938v37.039062h-3.28125l-53.597656-33.839844-55.121094-34.800781v-30.320313l11.199219-7.117187 44.640625 30.558594zm0 0"/><path d="m79.359375 93.121094 32.640625-22.402344 78.238281-53.519531c3.363281 2.082031 6.402344 4.5625 9.203125 7.359375 6.796875 6.800781 11.839844 15.28125 14.398438 24.800781l-69.199219 43.679687-32.640625 20.640626-44.800781 28.242187-11.199219 7.117187v-13.039062l-16-16zm0 0"/><path d="m352 192c-48.519531 0-88-39.480469-88-88s39.480469-88 88-88 88 39.480469 88 88-39.480469 88-88 88zm0 0"/></g><path d="m344 208h16v16h-16zm0 0"/><path d="m352 480c-48.519531 0-88-39.480469-88-88s39.480469-88 88-88 88 39.480469 88 88-39.480469 88-88 88zm0 0" fill="#f0bc5e"/><path d="m205.097656 110.214844c12.191406-12.191406 18.902344-28.398438 18.902344-45.65625 0-6.085938-.832031-11.964844-2.433594-17.277344-2.871094-10.664062-8.566406-20.480469-16.476562-28.378906-3.328125-3.335938-6.914063-6.191406-10.457032-8.382813-10.464843-6.878906-22.632812-10.519531-35.191406-10.519531-17.25 0-33.464844 6.710938-45.65625 18.902344l-1.785156 1.777344-1.785156-1.785157c-12.191406-12.183593-28.398438-18.894531-45.65625-18.894531-12.558594 0-24.726563 3.640625-35.015625 10.398438-3.726563 2.3125-7.3125 5.167968-10.640625 8.496093-7.902344 7.90625-13.597656 17.722657-16.414063 28.167969-1.65625 5.53125-2.488281 11.410156-2.488281 17.496094 0 17.257812 6.710938 33.472656 18.902344 45.65625l29.097656 29.097656v217.375l-29.097656 29.097656c-12.191406 12.191406-18.902344 28.398438-18.902344 45.65625 0 6.085938.832031 11.964844 2.433594 17.277344 2.871094 10.664062 8.566406 20.480469 16.476562 28.378906 3.328125 3.335938 6.914063 6.191406 10.457032 8.382813 10.464843 6.878906 22.632812 10.519531 35.191406 10.519531 17.25 0 33.464844-6.710938 45.65625-18.902344l1.785156-1.777344 1.785156 1.785157c12.191406 12.183593 28.398438 18.894531 45.65625 18.894531 12.558594 0 24.734375-3.640625 35.015625-10.398438 3.726563-2.3125 7.3125-5.167968 10.640625-8.496093 7.902344-7.90625 13.597656-17.722657 16.414063-28.167969 1.65625-5.53125 2.488281-11.410156 2.488281-17.496094 0-17.257812-6.710938-33.472656-18.902344-45.65625l-29.097656-29.097656v-217.375zm2.902344 321.226562c0 4.527344-.609375 8.871094-1.878906 13.117188-2.144532 7.960937-6.410156 15.296875-12.335938 21.226562-2.496094 2.496094-5.03125 4.527344-7.9375 6.335938-7.847656 5.152344-16.984375 7.878906-26.40625 7.878906-12.976562 0-25.167968-5.046875-34.34375-14.214844l-13.097656-13.105468-13.097656 13.105468c-9.167969 9.167969-21.367188 14.214844-34.34375 14.214844-5.085938 0-10.070313-.855469-14.855469-2.414062l69.367187-47.464844-7.070312-4.839844-7.089844-4.867188-71.070312 48.632813c-1.222656-.992187-2.433594-2.070313-3.625-3.261719-4.519532-4.511718-8.046875-9.847656-10.460938-15.746094l66.820313-42.199218-7.222657-4.960938-7.152343-4.886718-56.070313 35.40625c-.015625-.65625-.128906-1.285157-.128906-1.957032 0-12.984375 5.046875-25.175781 14.214844-34.34375l33.785156-33.785156v-102.558594l39.441406 25.933594 7.679688-4.847656 7.183594-4.535156-44.199219-29.121094 45.648437-28.574219-8.632812-5.449219-6.386719-4.03125-40.734375 25.480469v-102.921875l-33.785156-33.785156c-9.167969-9.167969-14.214844-21.367188-14.214844-34.34375 0-.664063.113281-1.300782.136719-1.957032l56.070312 35.40625 7.152344-4.886718 7.226563-4.960938-66.832032-42.199218c2.382813-5.839844 5.925782-11.207032 10.460938-15.753907 1.191406-1.175781 2.394531-2.246093 3.632812-3.246093l71.0625 48.625 7.089844-4.867188 7.070312-4.839844-69.375-47.464844c4.769532-1.550781 9.761719-2.414062 14.863282-2.414062 12.976562 0 25.167968 5.046875 34.34375 14.214844l13.097656 13.105468 13.097656-13.105468c9.167969-9.167969 21.367188-14.214844 34.34375-14.214844 9.429688 0 18.558594 2.726562 26.589844 8 2.722656 1.679688 5.25 3.71875 7.753906 6.214844 5.925782 5.921875 10.191406 13.265625 12.398438 21.433594 1.207031 4.039062 1.816406 8.375 1.816406 12.910156 0 12.984375-5.046875 25.175781-14.214844 34.34375l-10.746094 10.746094-31.046874-21.25-7.351563 4.640624-7.382813 4.671876 34.269532 23.449218-11.527344 11.527344v1.832031l-40.511719-25.582031-7.488281 4.742188-7.496094 4.726562 37.550782 23.722656-36.933594 25.757813 6.710937 4.601562 7.382813 5.054688 37.472656-26.175781 3.3125 2.082031v189.09375l-3.527344 2.226562-38.695312-25.320312-5.9375 4.070312-8.335938 5.710938 38.167969 24.898437-37.160156 23.472656 7.488281 4.71875 7.488281 4.734376 40.511719-25.574219v1.832031l11.527344 11.527344-34.269532 23.449218 7.382813 4.671876 7.351563 4.640624 31.046874-21.25 10.746094 10.746094c9.167969 9.167969 14.214844 21.367188 14.214844 34.34375zm0 0"/><path d="m344 0h16v24h-16zm0 0"/><path d="m272.800781 36.117188 11.3125-11.3125 16.96875 16.972656-11.3125 11.3125zm0 0"/><path d="m248 96h24v16h-24zm0 0"/><path d="m272.800781 171.886719 16.96875-16.972657 11.316407 11.316407-16.972657 16.96875zm0 0"/><path d="m402.910156 166.226562 11.3125-11.3125 16.972656 16.972657-11.3125 11.3125zm0 0"/><path d="m344 272h16v16h-16zm0 0"/><path d="m432 96h24v16h-24zm0 0"/><path d="m402.910156 41.773438 16.96875-16.96875 11.3125 11.3125-16.96875 16.96875zm0 0"/><path d="m320 72h16v16h-16zm0 0"/><path d="m368 72h16v16h-16zm0 0"/><path d="m320 120h16v16h-16zm0 0"/><path d="m368 120h16v16h-16zm0 0"/><path d="m272.796875 324.117188 11.3125-11.3125 16.972656 16.96875-11.3125 11.3125zm0 0"/><path d="m248 384h24v16h-24zm0 0"/><path d="m272.796875 459.882812 16.972656-16.96875 11.3125 11.3125-16.96875 16.972657zm0 0"/><path d="m344 472h16v24h-16zm0 0"/><path d="m402.90625 454.226562 11.316406-11.3125 16.96875 16.96875-11.3125 11.3125zm0 0"/><path d="m432 384h24v16h-24zm0 0"/><path d="m402.90625 329.773438 16.972656-16.972657 11.3125 11.316407-16.96875 16.96875zm0 0"/><path d="m320 360h16v16h-16zm0 0"/><path d="m368 360h16v16h-16zm0 0"/><path d="m320 408h16v16h-16zm0 0"/><path d="m368 408h16v16h-16zm0 0"/></svg>