<svg height="496pt" viewBox="0 0 496 496" width="496pt" xmlns="http://www.w3.org/2000/svg"><path d="m465.105469 186.800781c5.863281-3.503906 6.894531-7.128906 6.894531-10.800781v-32c0-10.457031-12.359375-13.222656-48.121094-19.71875l-6.582031-1.203125-2.90625 15.738281 6.632813 1.207032c7.320312 1.328124 17.542968 3.183593 25.496093 5.023437-27.328125 7.21875-101.625 14.953125-198.519531 14.953125s-171.191406-7.734375-198.511719-14.953125c7.953125-1.832031 18.175781-3.695313 25.503907-5.023437l6.632812-1.207032-2.90625-15.738281-6.582031 1.203125c-35.769531 6.488281-48.136719 9.261719-48.136719 19.71875v32c0 3.671875 1.03125 7.296875 6.878906 10.792969l-30.566406 107.015625-.3125 2.191406c0 5.558594 0 11.3125 46.488281 23.015625 28.542969 7.183594 63.640625 13.59375 98.800781 18.054687l2.015626-15.871093c-67.207032-8.511719-116.863282-21.808594-130.167969-28.03125l3.640625-12.753907c26.039062 9.074219 82.300781 20.769532 144.589844 27.105469l1.617187-15.917969c-22.289063-2.265624-43.230469-5.152343-62.097656-8.289062l13.410156-80.433594c38.277344 3.273438 84.253906 5.121094 129.703125 5.121094s91.425781-1.847656 129.703125-5.128906l13.410156 80.433594c-18.867187 3.128906-39.808593 6.015624-62.089843 8.289062l1.617187 15.917969c62.289063-6.335938 118.558594-18.03125 144.589844-27.105469l3.640625 12.753906c-13.304688 6.230469-62.949219 19.511719-130.152344 28.023438l2.007812 15.871094c35.160157-4.453126 70.242188-10.863282 98.792969-18.054688 46.480469-11.6875 46.480469-17.441406 46.480469-23zm-419.21875 5.71875c6.203125 1.65625 14.203125 3.28125 24.359375 4.847657l-20.398438 74.816406c-10.289062-2.550782-18.679687-4.992188-24.679687-7.136719zm19.554687 83.28125 20.78125-76.207031c3.632813.445312 7.441406.886719 11.496094 1.328125 1.480469.15625 3.097656.292969 4.609375.453125l-13.199219 79.175781c-8.496094-1.566406-16.394531-3.160156-23.6875-4.75zm182.558594-83.800781c-112.609375 0-194.6875-10.457031-208-18.390625v-14.824219c10.695312 3.566406 28.390625 6.96875 57.71875 10.136719 41.617188 4.503906 96.386719 7.078125 150.28125 7.078125s108.664062-2.574219 150.28125-7.078125c29.328125-3.167969 47.023438-6.578125 57.71875-10.136719v14.824219c-13.3125 7.933594-95.390625 18.390625-208 18.390625zm158.871094 88.550781-13.199219-79.175781c1.511719-.152344 3.128906-.296875 4.609375-.453125 4.0625-.441406 7.871094-.882813 11.496094-1.328125l20.78125 76.207031c-7.292969 1.589844-15.191406 3.183594-23.6875 4.75zm39.289062-8.367187-20.398437-74.816406c10.148437-1.574219 18.160156-3.191407 24.359375-4.847657l20.71875 72.519531c-6 2.144532-14.390625 4.59375-24.679688 7.144532zm0 0"/><path d="m248 496c-66.167969 0-120-53.832031-120-120s53.832031-120 120-120 120 53.832031 120 120-53.832031 120-120 120zm0 0" fill="#f0bc5e"/><path d="m248 352c-13.230469 0-24-10.769531-24-24s10.769531-24 24-24 24 10.769531 24 24-10.769531 24-24 24zm0-32c-4.40625 0-8 3.585938-8 8s3.59375 8 8 8 8-3.585938 8-8-3.59375-8-8-8zm0 0"/><path d="m197.089844 373.078125c-6.152344 0-12.296875-2.34375-16.976563-7.023437-4.527343-4.527344-7.023437-10.550782-7.023437-16.964844 0-6.410156 2.496094-12.441406 7.023437-16.96875 9.351563-9.359375 24.574219-9.367188 33.941407 0 4.539062 4.527344 7.035156 10.558594 7.035156 16.96875 0 6.414062-2.496094 12.445312-7.035156 16.972656-4.679688 4.671875-10.824219 7.015625-16.964844 7.015625zm0-31.980469c-2.050782 0-4.105469.773438-5.664063 2.335938-1.503906 1.503906-2.335937 3.519531-2.335937 5.65625 0 2.140625.832031 4.148437 2.335937 5.652344 3.109375 3.105468 8.191407 3.128906 11.316407 0 1.515624-1.511719 2.347656-3.511719 2.347656-5.652344 0-2.136719-.832032-4.144532-2.347656-5.65625-1.558594-1.570313-3.605469-2.335938-5.652344-2.335938zm0 0"/><path d="m298.910156 373.070312c-6.148437 0-12.292968-2.335937-16.972656-7.015624-4.53125-4.519532-7.035156-10.550782-7.035156-16.964844 0-6.410156 2.496094-12.441406 7.035156-16.96875 9.351562-9.359375 24.574219-9.367188 33.941406 0 4.527344 4.527344 7.023438 10.558594 7.023438 16.96875 0 6.414062-2.496094 12.4375-7.023438 16.964844-4.679687 4.679687-10.824218 7.015624-16.96875 7.015624zm0-31.972656c-2.046875 0-4.09375.773438-5.664062 2.335938-1.511719 1.511718-2.34375 3.519531-2.34375 5.65625 0 2.140625.832031 4.140625 2.335937 5.644531 3.121094 3.121094 8.195313 3.136719 11.320313.007813 1.511718-1.503907 2.335937-3.511719 2.335937-5.652344 0-2.136719-.832031-4.152344-2.34375-5.65625-1.542969-1.570313-3.589843-2.335938-5.640625-2.335938zm0 0"/><path d="m248 448c-31.398438 0-56-17.566406-56-40s24.601562-40 56-40 56 17.566406 56 40-24.601562 40-56 40zm0-64c-21.679688 0-40 10.992188-40 24s18.320312 24 40 24 40-10.992188 40-24-18.320312-24-40-24zm0 0"/><path d="m418.503906 150.289062c3.464844-7.128906 5.496094-14.921874 5.496094-22.289062 0-16.152344-9.71875-30.472656-24.273438-36.671875-2.140624-18.335937-16.71875-32.914063-35.054687-35.054687-6.617187-15.53125-22.351563-25.859376-39.960937-24.113282-6.222657-14.359375-20.605469-24.160156-36.710938-24.160156-4.527344 0-8.984375.800781-13.3125 2.382812-7.3125-6.65625-16.757812-10.382812-26.6875-10.382812s-19.375 3.726562-26.6875 10.382812c-4.328125-1.582031-8.785156-2.382812-13.3125-2.382812-16.105469 0-30.488281 9.800781-36.710938 24.167969-17.617187-1.753907-33.335937 8.574219-39.960937 24.113281-18.335937 2.144531-32.914063 16.71875-35.054687 35.054688-14.554688 6.191406-24.273438 20.511718-24.273438 36.664062 0 7.375 1.992188 15.152344 5.390625 22.273438 36.882813 5.285156 97.242187 9.726562 170.609375 9.726562 73.296875 0 133.625-4.425781 170.503906-9.710938zm0 0" fill="#f0bc5e"/><path d="m176 88h16v16h-16zm0 0"/><path d="m280 40h16v16h-16zm0 0"/><path d="m240 120h16v16h-16zm0 0"/><path d="m304 96h16v16h-16zm0 0"/><path d="m224 64c-13.230469 0-24-10.769531-24-24h16c0 4.414062 3.59375 8 8 8zm0 0"/><path d="m352 144v-16c4.40625 0 8-3.585938 8-8h16c0 13.230469-10.769531 24-24 24zm0 0"/><path d="m144 144c-13.230469 0-24-10.769531-24-24h16c0 4.414062 3.59375 8 8 8zm0 0"/></svg>