<svg height="496pt" viewBox="0 0 496 496" width="496pt" xmlns="http://www.w3.org/2000/svg"><path d="m400.390625 392h-.78125c-21.839844 0-39.609375-17.769531-39.609375-39.609375 0-6.871094 1.808594-13.671875 5.214844-19.648437l34.785156-60.871094 34.785156 60.863281c3.40625 5.984375 5.214844 12.777344 5.214844 19.65625 0 21.839844-17.769531 39.609375-39.609375 39.609375zm0 0" fill="#f0bc5e"/><path d="m144 400c-61.761719 0-112-50.238281-112-112s50.238281-112 112-112 112 50.238281 112 112-50.238281 112-112 112zm0 0" fill="#f0bc5e"/><path d="m336 240h40v16h-40zm0 0"/><path d="m336 272h40v16h-40zm0 0"/><path d="m472 126.113281v-22.113281c0-8.824219-7.175781-16-16-16v-7.503906c0-13.390625-9.070312-25.007813-22.0625-28.25-5.847656-1.46875-9.9375-6.710938-9.9375-12.742188v-15.503906c0-13.230469-10.769531-24-24-24s-24 10.769531-24 24v15.503906c0 6.03125-4.089844 11.265625-9.9375 12.734375-12.992188 3.25-22.0625 14.867188-22.0625 28.257813v7.503906c-8.824219 0-16 7.175781-16 16v22.113281l-24 48v281.886719c0 22.054688 17.945312 40 40 40h112c22.054688 0 40-17.945312 40-40v-281.886719zm-80-22.113281v16h-16v-16zm16 0h16v16h-16zm32 0h16v16h-16zm-80-23.503906c0-6.03125 4.089844-11.265625 9.9375-12.734375 12.992188-3.25 22.0625-14.867188 22.0625-28.257813v-15.503906c0-4.414062 3.585938-8 8-8s8 3.585938 8 8v15.503906c0 13.390625 9.070312 25.007813 22.0625 28.25 5.847656 1.46875 9.9375 6.710938 9.9375 12.742188v7.503906h-80zm0 23.503906v16h-16v-16zm96 376h-112c-13.230469 0-24-10.769531-24-24v-272h96v-16h-91.054688l16-32h118.109376l16 32h-43.054688v16h48v272c0 13.230469-10.769531 24-24 24zm0 0"/><path d="m241.039062 69.640625-19.4375 16-19.449218-16-19.441406 15.992187-19.414063-16-19.402344 16-19.421875-16-19.425781 16-19.414063-16-19.433593 16-19.40625-16-19.417969 16-27.375-22.601562v416.96875c0 8.824219 7.175781 16 16 16h256c8.824219 0 16-7.175781 16-16v-416.921875l-27.480469 22.570313zm30.960938 50.359375h-32v16h32v304h-32v16h32v24h-256v-24h208v-16h-208v-304h208v-16h-208v-23.03125l11.398438 9.398438 19.417968-16 19.40625 16 19.433594-16 19.414062 16 19.425782-16 19.441406 16 19.382812-16 19.414063 16 19.441406-16.007813 19.449219 16 19.453125-16 19.472656 15.992187 11.449219-9.429687zm0 0"/><path d="m187.3125 256 18.34375-18.34375-11.3125-11.3125-18.34375 18.34375-4.199219-4.199219c-10.632812-10.640625-24.769531-16.488281-39.800781-16.488281s-29.167969 5.847656-39.800781 16.488281l-15.511719 15.511719 15.511719 15.511719c10.632812 10.640625 24.769531 16.488281 39.800781 16.488281s29.167969-5.847656 39.800781-16.488281l4.199219-4.199219 18.34375 18.34375 11.3125-11.3125zm-26.824219 4.199219c-7.617187 7.617187-17.726562 11.800781-28.488281 11.800781s-20.871094-4.183594-28.488281-11.800781l-4.199219-4.199219 4.199219-4.199219c7.617187-7.617187 17.726562-11.800781 28.488281-11.800781s20.871094 4.183594 28.488281 11.800781l4.199219 4.199219zm0 0"/><path d="m104 304h80v16h-80zm0 0"/><path d="m200 304h16v16h-16zm0 0"/><path d="m72 304h16v16h-16zm0 0"/><path d="m104 336h80v16h-80zm0 0"/><path d="m424 240h16v16h-16zm0 0"/><path d="m456 240h16v16h-16zm0 0"/></svg>