<svg height="495pt" viewBox="-59 0 495 495.984" width="495pt" xmlns="http://www.w3.org/2000/svg"><path d="m96.492188 295.984375c0-8.839844 7.160156-16 16-16h16v-40h-24c-26.472657 0-48 21.527344-48 48v52c0 19.847656 16.152343 36 36 36 19.847656 0 36-16.152344 36-36v-28h-16c-8.839844 0-16-7.160156-16-16zm0 0" fill="#f0bc5e"/><path d="m240.492188 79.984375v16c17.648437 0 32-14.351563 32-32s-14.351563-32-32-32c-17.648438 0-32 14.351563-32 32h16c0-8.824219 7.175781-16 16-16 8.824218 0 16 7.175781 16 16s-7.175782 16-16 16zm0 0"/><path d="m374.347656 339.488281-13.671875-75.183593c-10.542969-57.96875-34.863281-113.191407-70.253906-160.273438 9.308594-11.566406 14.269531-25.878906 14.0625-40.941406-.480469-34.304688-28.777344-62.609375-63.089844-63.089844-17.167969.015625-33.558593 6.304688-45.847656 18.425781-10.367187 10.214844-16.808594 23.34375-18.558594 37.558594h-3.808593c-42.289063 0-76.6875 34.398437-76.6875 76.6875 0 4.800781-1.800782 9.289063-4.984376 12.832031-4.390624-5.742187-11.238281-9.519531-19.015624-9.519531-13.230469 0-24 10.769531-24 24s10.769531 24 24 24c2.960937 0 5.761718-.609375 8.375-1.59375 1.433593 12.296875 7.007812 23.800781 15.625 32.65625v40.9375h48v-24h24v-16h-32c-8.601563 0-17.128907-2.839844-24-8-10.015626-7.511719-16-19.480469-16-32v-4.6875c0-5.160156 2.007812-10.007813 5.664062-13.65625 6.664062-6.671875 10.335938-15.535156 10.335938-24.96875 0-33.464844 27.222656-60.6875 60.6875-60.6875h19.3125v-8c0-12.945313 5.078124-25.089844 14.296874-34.175781 9.214844-9.089844 21.34375-14.242188 34.382813-13.816406 25.296875.351562 46.960937 22.015624 47.3125 47.304687.175781 12.960937-4.726563 25.167969-13.824219 34.390625s-21.222656 14.296875-34.167968 14.296875v16c14.015624 0 27.28125-4.535156 38.28125-12.792969 33.277343 44.761719 56.183593 97.066406 66.167968 151.960938l13.671875 75.183594c1.246094 6.871093 1.878907 13.902343 1.878907 20.894531 0 64.378906-52.375 116.753906-116.753907 116.753906h-81.824219c2.5625-6.953125 8.371094-12.472656 15.832032-14.464844l96.808594-25.816406-4.125-15.457031-20.007813 5.339844-7.433594-9.289063c-11.929687-14.90625-18.496093-33.640625-18.496093-52.746094 0-27.207031 13.214843-52.886719 35.359374-68.710937l17.289063-12.351563-9.304687-13.015625-17.289063 12.351563c-12.648437 9.03125-22.757813 20.816406-29.949219 34.160156h-9.035156c-25.765625 0-51-4.527344-75.078125-13.488281v-21.191406c25.375-11.105469 47.824219-28.289063 65.160156-49.960938l5.085938-6.359375-12.496094-10-5.085937 6.359375c-16.457032 20.566406-38 36.648438-62.335938 46.640625h-14.320312c-13.230469 0-24 10.769531-24 24s10.769531 24 24 24h14.558593c5.753907 2.253906 11.570313 4.261719 17.441407 6.046875v38.730469c0 30.71875 9.34375 60.902343 26.464843 86.269531-15.679687 5.417969-26.464843 20.160156-26.464843 36.953125v8h99.246093c73.203125 0 132.753907-59.550781 132.753907-132.753906 0-7.949219-.71875-15.933594-2.144532-23.742188zm-301.855468-171.503906c-4.40625 0-8-3.585937-8-8 0-4.417969 3.59375-8 8-8s8 3.582031 8 8c0 4.414063-3.59375 8-8 8zm56 63.34375v8.65625h-16v-13.558594c5.070312 2.398438 10.449218 4.09375 16 4.902344zm-24 64.65625c0-4.417969 3.59375-8 8-8h8v16h-8c-4.40625 0-8-3.585937-8-8zm56 34.253906c16.695312 3.785157 33.777343 5.746094 51.078124 5.746094h2.1875c-3.355468 10.085937-5.265624 20.695313-5.265624 31.566406 0 22.722657 7.816406 45.007813 22.007812 62.753907l3.03125 3.792968-46.152344 12.300782c-17.3125-23.582032-26.886718-52.308594-26.886718-81.636719zm0 0"/><path d="m56.492188 207.984375h16v16h-16zm0 0"/><path d="m32.492188 247.984375h16v16h-16zm0 0"/><path d="m114.613281 428.703125-40.769531-9.0625c-10.9375-2.425781-22.160156-3.65625-33.351562-3.65625-22.054688 0-40 17.945313-40 40s17.945312 40 40 40c11.191406 0 22.414062-1.230469 33.351562-3.65625l40.761719-9.0625c12.886719-2.859375 21.886719-14.082031 21.886719-27.28125s-9-24.425781-21.878907-27.28125zm-74.121093 3.28125c10.03125 0 20.085937 1.105469 29.878906 3.28125l40.769531 9.0625c2.480469.550781 4.550781 1.902344 6.160156 3.65625h-99.335937c3.3125-9.289063 12.109375-16 22.527344-16zm70.65625 35.65625-40.769532 9.0625c-9.800781 2.175781-19.855468 3.28125-29.886718 3.28125-10.417969 0-19.214844-6.710937-22.527344-16h99.335937c-1.601562 1.75-3.671875 3.105469-6.152343 3.65625zm0 0"/><path d="m8.492188 207.984375h16v16h-16zm0 0"/><path d="m160.492188 111.984375c0 4.417969-3.582032 8-8 8-4.417969 0-8-3.582031-8-8s3.582031-8 8-8c4.417968 0 8 3.582031 8 8zm0 0"/><path d="m127.34375 152.0625 56-8 2.261719 15.847656-55.996094 7.996094zm0 0"/><path d="m127.359375 191.910156 2.265625-15.84375 56 8.007813-2.269531 15.847656zm0 0"/><g fill="#f0bc5e"><path d="m264.492188 167.984375h16v24h-16zm0 0"/><path d="m232.492188 215.984375h16v24h-16zm0 0"/><path d="m304.492188 239.984375h16v24h-16zm0 0"/><path d="m248.492188 343.984375h16v24h-16zm0 0"/><path d="m320.492188 327.984375h16v24h-16zm0 0"/><path d="m296.492188 391.984375h16v24h-16zm0 0"/></g></svg>