<svg height="496pt" viewBox="-124 0 496 496" width="496pt" xmlns="http://www.w3.org/2000/svg"><path d="m48 120v224c0 8.839844 7.160156 16 16 16h160c8.839844 0 16-7.160156 16-16v-200c-104 0-136-24-192-24zm0 0" fill="#f0bc5e"/><path d="m230.96875 49.152344-8.191406-49.152344h-157.554688l-8.191406 49.152344c-9.824219 3.007812-17.03125 12.054687-17.03125 22.847656v272c0 13.230469 10.769531 24 24 24h8v16c0 8.824219 7.175781 16 16 16h32v18.230469l-105.191406 35.066406c-8.855469 2.949219-14.808594 11.207031-14.808594 21.046875 0 11.9375 9.710938 21.65625 21.664062 21.65625 2.457032 0 4.878907-.414062 7.207032-1.230469l139.128906-49.105469v-45.664062h32c8.824219 0 16-7.175781 16-16v-16h8c13.230469 0 24-10.769531 24-24v-272c0-10.792969-7.207031-19.839844-17.03125-22.847656zm-21.746094-33.152344 5.335938 32h-141.117188l5.335938-32zm-153.222656 160h16v64h-16zm32 192h16v16h-16zm80 0v16h-16v-16zm-32 16h-16v-16h16zm16 50.335938-128.457031 45.335937c-3.582031 1.296875-7.542969-1.472656-7.542969-5.832031 0-2.441406 1.550781-4.601563 3.871094-5.375l116.128906-38.695313v-29.769531h16zm48-50.335938h-16v-16h16zm24-32h-160c-4.40625 0-8-3.585938-8-8v-88h32v-96h-32v-88c0-4.414062 3.59375-8 8-8h160c4.40625 0 8 3.585938 8 8v88h-32v96h32v88c0 4.414062-3.59375 8-8 8zm8-176v64h-16v-64zm0 0"/><path d="m152 80h-16v16h-24v16h24v48h-24v16h24v48h-24v16h24v48h-24v16h24v32h16v-64h24v-16h-24v-48h24v-16h-24v-48h24v-16h-24zm0 0"/></svg>