<svg height="496pt" viewBox="0 -3 496 496" width="496pt" xmlns="http://www.w3.org/2000/svg"><g fill="#f0bc5e"><path d="m216 46.136719c-10.089844-3.265625-20.824219-5.074219-32-5.074219s-21.910156 1.808594-32 5.074219v58.925781h64zm0 0"/><path d="m144 49.0625c-12.640625 5.28125-24 12.960938-33.519531 22.480469-.082031.082031-.160157.160156-.242188.242187-20.160156-15.761718-43.277343-27.042968-67.917969-33.121094-1.519531-9.199218-2.320312-18.640624-2.320312-28.078124v-1.523438l13.199219 1.679688c33.199219 4.160156 64.640625 17.363281 90.800781 38.320312zm0 0"/><path d="m328 9.0625v1.523438c0 9.4375-.800781 18.878906-2.320312 28.078124-24.640626 6.078126-47.757813 17.359376-67.917969 33.121094-9.601563-9.679687-21.042969-17.441406-33.761719-22.722656 26.160156-20.957031 57.601562-34.160156 90.800781-38.320312zm0 0"/></g><path d="m144 137.0625c0 4.417969-3.582031 8-8 8s-8-3.582031-8-8 3.582031-8 8-8 8 3.582031 8 8zm0 0"/><path d="m240 137.0625c0 4.417969-3.582031 8-8 8s-8-3.582031-8-8 3.582031-8 8-8 8 3.582031 8 8zm0 0"/><path d="m176 337.0625v32h16v-32h16v-16.40625c88.902344-4.214844 160-77.65625 160-167.59375v-56h-32v-16h-14.390625c9.40625-22.230469 14.390625-46.34375 14.390625-70.476562v-10.585938l-22.167969 2.769531c-33.199219 4.152344-64.59375 17.078125-91.167969 37.308594-12.070312-4.453125-25.054687-7.015625-38.664062-7.015625s-26.59375 2.5625-38.664062 7.027344c-26.574219-20.234375-57.96875-33.167969-91.167969-37.3125l-22.167969-2.777344v10.585938c0 24.132812 4.984375 48.246093 14.390625 70.476562h-14.390625v16h-32v56c0 89.9375 71.097656 163.378906 160 167.59375v16.40625zm-99.28125-224h-28.71875v-16h34.960938c-2.457032 5.144531-4.585938 10.464844-6.242188 16zm3.519531 69 7.761719-10.328125v-26.671875c0-38.648438 23.007812-71.949219 56-87.160156v47.160156h16v-52.839844c5.183594-1.34375 10.519531-2.292968 16-2.75v55.589844h16v-55.589844c5.480469.457032 10.816406 1.40625 16 2.75v52.839844h16v-47.160156c32.992188 15.210937 56 48.511718 56 87.160156v26.671875l7.761719 10.328125c5.308593 7.082031 8.238281 15.847656 8.238281 24.707031 0 13.78125-6.847656 26.574219-18.320312 34.222657l-10.175782 6.792968c-5.007812 3.335938-10.214844 6.261719-15.519531 8.957032 2.632813-7.574219 4.015625-15.589844 4.015625-23.679688 0-39.695312-32.296875-72-72-72s-72 32.304688-72 72c0 8.128906 1.414062 16.128906 4.054688 23.699219-5.320313-2.699219-10.542969-5.632813-15.558594-8.976563l-10.175782-6.792968c-11.472656-7.648438-18.320312-20.441407-18.320312-34.222657 0-8.859375 2.929688-17.625 8.238281-24.707031zm204.800781-85h34.960938v16h-28.71875c-1.65625-5.535156-3.785156-10.855469-6.242188-16zm-101.039062 96c-5.742188 0-10.726562-3.886719-12.128906-9.460938l-1.214844-4.867187c4.289062-1.046875 8.734375-1.671875 13.34375-1.671875s9.054688.625 13.34375 1.671875l-1.214844 4.867187c-1.402344 5.574219-6.386718 9.460938-12.128906 9.460938zm-44.902344 73.121094c-7.066406-9.582032-11.097656-21.144532-11.097656-33.121094 0-20.542969 11.160156-38.496094 27.695312-48.238281l.664063 2.65625c2.496094 10.015625 10.121094 17.566406 19.640625 20.359375v25.222656c0 4.410156-3.585938 8-8 8s-8-3.589844-8-8h-16c0 13.234375 10.769531 24 24 24 6.167969 0 11.742188-2.40625 16-6.238281 4.257812 3.839843 9.832031 6.238281 16 6.238281 13.230469 0 24-10.765625 24-24h-16c0 4.410156-3.585938 8-8 8s-8-3.589844-8-8v-25.222656c9.519531-2.785156 17.144531-10.34375 19.640625-20.359375l.664063-2.648438c16.535156 9.734375 27.695312 27.6875 27.695312 48.230469 0 12.089844-3.871094 23.433594-10.984375 33.082031-14.472656 4.542969-29.609375 6.917969-45.015625 6.917969-15.367188 0-30.472656-2.359375-44.902344-6.878906zm36.902344 54.878906v-32.292969c2.664062.125 5.320312.292969 8 .292969s5.335938-.167969 8-.292969v32.292969zm176-208v40c0 81.113281-63.910156 147.394531-144 151.59375v-17.335938c24.359375-3.527343 47.65625-12.410156 68.375-26.222656l10.175781-6.792968c15.9375-10.617188 25.449219-28.394532 25.449219-47.535157 0-12.296875-4.0625-24.480469-11.449219-34.3125l-4.550781-6.066406v-21.328125c0-5.445312-.519531-10.757812-1.28125-16h41.28125v-16zm-36.175781-94.414062 4-.496094c-1.015625 21.726562-6.433594 43.238281-15.753907 62.910156h-28.292968c-9.546875-13.636719-22.035156-25.039062-36.554688-33.308594 22.800782-15.648437 49.035156-25.65625 76.601563-29.105468zm-267.648438-.503907 4 .496094c27.566407 3.449219 53.800781 13.464844 76.59375 29.101563-14.523437 8.28125-27.007812 19.683593-36.554687 33.320312h-28.285156c-9.320313-19.671875-14.738282-41.183594-15.753907-62.917969zm-32.175781 134.917969v-40h16v16h41.28125c-.761719 5.242188-1.28125 10.554688-1.28125 16v21.328125l-4.550781 6.066406c-7.386719 9.832031-11.449219 22.015625-11.449219 34.3125 0 19.140625 9.511719 36.917969 25.449219 47.535157l10.175781 6.792968c20.71875 13.8125 44.015625 22.695313 68.375 26.222656v17.335938c-80.089844-4.199219-144-70.480469-144-151.59375zm0 0"/><path d="m456 297.0625h-16v24h-16v-24h-16v40h16v32h16v-32h16zm0 0"/><path d="m424 437.0625c0 19.847656-16.152344 36-36 36s-36-16.152344-36-36v-68c0-26.46875-21.527344-48-48-48s-48 21.53125-48 48v72c0 17.648438-14.351562 32-32 32s-32-14.351562-32-32v-24h-16v24c0 26.472656 21.527344 48 48 48s48-21.527344 48-48v-72c0-17.648438 14.351562-32 32-32s32 14.351562 32 32v68c0 28.671875 23.328125 52 52 52s52-23.328125 52-52v-20h-16zm0 0"/><path d="m176 385.0625h16v16h-16zm0 0"/><path d="m424 385.0625h16v16h-16zm0 0"/><path d="m432 177.0625c35.382812 0 64 28.617188 64 64 0 29.257812-19.566406 53.945312-46.351562 61.53125-5.578126 1.644531-11.519532 2.46875-17.648438 2.46875s-12.070312-.824219-17.648438-2.46875c-26.785156-7.585938-46.351562-32.273438-46.351562-61.53125 0-35.382812 28.617188-64 64-64zm24 64c0-13.277344-10.71875-24-24-24s-24 10.722656-24 24c0 13.28125 10.71875 24 24 24s24-10.71875 24-24zm0 0" fill="#f0bc5e"/><path d="m432 273.0625c-17.648438 0-32-14.351562-32-32s14.351562-32 32-32 32 14.351562 32 32-14.351562 32-32 32zm0-48c-8.824219 0-16 7.175781-16 16s7.175781 16 16 16 16-7.175781 16-16-7.175781-16-16-16zm0 0"/></svg>