<svg height="496pt" viewBox="0 0 496.00402 496" width="496pt" xmlns="http://www.w3.org/2000/svg"><path d="m447.632812 341.617188-15.265624 4.777343 34.976562 111.933594-29.273438-11.703125-18.117187 18.121094-28.257813-98.929688-7.695312 2.1875-7.695312-2.203125-28.257813 98.929688-18.117187-18.121094-29.273438 11.703125 34.976562-111.933594-15.265624-4.777344-16.367188 52.382813v-78.71875h-16v76.738281h-272v-304h72v-72h200v196.742188h16v-212.74218775h-227.3125l-76.6875 76.68749975v331.3125h299.625l-24.28125 77.679688 50.726562-20.296875 29.890626 29.878906 28.039062-98.128906 28.039062 98.136719 29.890626-29.878907 50.726562 20.296875zm-420.320312-269.613282 44.6875-44.691406v44.691406zm0 0"/><path d="m384.152344 376.003906c-7.351563 0-14.753906-1.984375-21.242188-5.984375-14.972656 2.34375-30.101562-3.921875-38.949218-16.152343-14.695313-3.503907-26.328126-15.136719-29.832032-29.832032-12.207031-8.847656-18.503906-24.015625-16.152344-38.90625-7.929687-12.535156-8-29.207031.007813-42.222656-2.375-14.914062 3.917969-30.105469 16.152344-38.953125 3.503906-14.695313 15.136719-26.328125 29.832031-29.832031 8.847656-12.207032 23.992188-18.503906 38.902344-16.152344 12.542968-7.910156 29.226562-8 42.226562.007812 14.949219-2.367187 30.09375 3.921876 38.949219 16.152344 14.695313 3.503906 26.328125 15.136719 29.832031 29.832032 12.210938 8.847656 18.503906 24.015624 16.152344 38.90625 7.929688 12.535156 8 29.207031-.007812 42.222656 2.375 14.914062-3.917969 30.105468-16.152344 38.953125-3.503906 14.695312-15.136719 26.328125-29.832032 29.832031-8.855468 12.207031-24.03125 18.488281-38.902343 16.152344-6.289063 3.964844-13.617188 5.964844-20.984375 5.976562zm0 0" fill="#f0bc5e"/><path d="m384 344.003906c-44.113281 0-80-35.890625-80-80 0-44.113281 35.886719-80 80-80s80 35.886719 80 80c0 44.109375-35.886719 80-80 80zm0-144c-35.289062 0-64 28.710938-64 64 0 35.285156 28.710938 64 64 64s64-28.714844 64-64c0-35.289062-28.710938-64-64-64zm0 0"/><path d="m384 312.003906c-22.054688 0-40-14.355468-40-32 0-17.648437 17.945312-32 40-32s40 14.351563 40 32c0 17.644532-17.945312 32-40 32zm0-48c-13.007812 0-24 7.324219-24 16 0 8.671875 10.992188 16 24 16s24-7.328125 24-16c0-8.675781-10.992188-16-24-16zm0 0"/><path d="m392 224.003906c0 4.417969-3.582031 8-8 8s-8-3.582031-8-8c0-4.421875 3.582031-8 8-8s8 3.578125 8 8zm0 0"/><path d="m360 240.003906c0 4.417969-3.582031 8-8 8s-8-3.582031-8-8c0-4.421875 3.582031-8 8-8s8 3.578125 8 8zm0 0"/><path d="m424 240.003906c0 4.417969-3.582031 8-8 8s-8-3.582031-8-8c0-4.421875 3.582031-8 8-8s8 3.578125 8 8zm0 0"/><path d="m144 248.003906h-112v-144h112zm0 0" fill="#f0bc5e"/><path d="m160 32.003906h16v16h-16zm0 0"/><path d="m192 32.003906h80v16h-80zm0 0"/><path d="m160 64.003906h16v16h-16zm0 0"/><path d="m192 64.003906h80v16h-80zm0 0"/><path d="m160 136.003906h112v16h-112zm0 0"/><path d="m160 168.003906h112v16h-112zm0 0"/><path d="m160 200.003906h96v16h-96zm0 0"/><path d="m32 264.003906h112v16h-112zm0 0"/><path d="m32 296.003906h112v16h-112zm0 0"/><path d="m32 328.003906h112v16h-112zm0 0"/><path d="m32 360.003906h112v16h-112zm0 0"/><path d="m160 264.003906h96v16h-96zm0 0"/><path d="m160 296.003906h96v16h-96zm0 0"/><path d="m160 328.003906h112v16h-112zm0 0"/><path d="m160 360.003906h112v16h-112zm0 0"/></svg>