<svg height="496pt" viewBox="-52 0 496 496" width="496pt" xmlns="http://www.w3.org/2000/svg"><path d="m120 224h-64v-64h64zm0 0" fill="#f0bc5e"/><path d="m344 224h-64v-64h64zm0 0" fill="#f0bc5e"/><path d="m392 120v-64h-120v16h104v32h-112v16h96v120h-320v-120h96v-16h-112v-32h104v-16h-120v64h16v120h-16v48h16v144h.207031c-3.535156 4.671875-6.183593 10.054688-7.390625 16h-16.816406v48h376v-129.472656c9.289062-3.3125 16-12.113282 16-22.527344v-8l-13.472656-48h13.472656v-48h-16v-120zm-192 360h-184v-16h184zm-166.527344-32c3.3125-9.289062 12.113282-16 22.527344-16 5.398438 0 10.574219 1.871094 14.976562 5.425781l5.023438 4.0625 5.023438-4.0625c8.792968-7.105469 21.160156-7.105469 29.945312 0l5.023438 4.0625 5.023437-4.0625c8.792969-7.105469 21.160156-7.105469 29.945313 0l5.023437 4.0625 5.023437-4.0625c4.417969-3.554687 9.59375-5.425781 14.992188-5.425781 10.414062 0 19.214844 6.710938 22.527344 16zm166.527344-23.792969c-6.703125-5.078125-14.960938-8.207031-24-8.207031-7.089844 0-13.894531 1.878906-20 5.488281-12.199219-7.199219-27.800781-7.199219-40 0-12.199219-7.199219-27.800781-7.199219-40 0-6.105469-3.609375-12.910156-5.488281-20-5.488281-5.695312 0-11.089844 1.230469-16 3.390625v-131.390625h157.390625l-13.085937 45.800781-.304688 10.199219c0 10.414062 6.710938 19.214844 16 22.527344zm8-72.207031c-4.40625 0-8-3.59375-8-8v-6.878906l14.03125-49.121094h15.359375l-13.085937 45.800781-.066407 2.199219h-.238281v8c0 4.40625-3.59375 8-8 8zm152 128h-144v-113.472656c2.992188-1.0625 5.6875-2.679688 8-4.765625 4.257812 3.839843 9.832031 6.238281 16 6.238281s11.742188-2.40625 16-6.238281c4.257812 3.839843 9.832031 6.238281 16 6.238281s11.742188-2.40625 16-6.238281c4.257812 3.839843 9.832031 6.238281 16 6.238281s11.742188-2.40625 16-6.238281c4.257812 3.839843 9.832031 6.238281 16 6.238281s11.742188-2.40625 16-6.238281c2.3125 2.078125 5.007812 3.703125 8 4.765625zm-128-136v-6.878906l14.03125-49.121094h8.746094l-6.699219 46.863281-.007813 1.136719h-.070312v8c0 4.40625-3.59375 8-8 8s-8-3.59375-8-8zm32 0v-7.433594l6.9375-48.566406h9.0625v56c0 4.40625-3.59375 8-8 8s-8-3.59375-8-8zm32 0v-56h9.0625l6.9375 48.566406v7.433594c0 4.40625-3.59375 8-8 8s-8-3.59375-8-8zm25.207031-56h8.753907l14.039062 49.121094v6.878906c0 4.40625-3.59375 8-8 8s-8-3.59375-8-8v-8zm54.792969 56c0 4.40625-3.59375 8-8 8s-8-3.59375-8-8v-8l-13.390625-48h15.359375l14.03125 49.121094zm0-72h-352v-16h352zm0 0"/><path d="m200 160c-44.113281 0-80-35.886719-80-80s35.886719-80 80-80 80 35.886719 80 80-35.886719 80-80 80zm0 0" fill="#f0bc5e"/><path d="m112 400c26.472656 0 48-21.527344 48-48s-21.527344-48-48-48-48 21.527344-48 48 21.527344 48 48 48zm-30.863281-40h22.863281v22.863281c-11.191406-2.910156-19.953125-11.671875-22.863281-22.863281zm38.863281 22.863281v-22.863281h22.863281c-2.910156 11.191406-11.671875 19.953125-22.863281 22.863281zm22.863281-38.863281h-22.863281v-22.863281c11.191406 2.910156 19.953125 11.671875 22.863281 22.863281zm-38.863281-22.863281v22.863281h-22.863281c2.910156-11.191406 11.671875-19.953125 22.863281-22.863281zm0 0"/><path d="m240 384h96v96h-96zm0 0" fill="#f0bc5e"/><path d="m272 432h16v16h-16zm0 0"/><path d="m200 128c-22.054688 0-40-14.351562-40-32s17.945312-32 40-32 40 14.351562 40 32-17.945312 32-40 32zm0-48c-13.007812 0-24 7.328125-24 16s10.992188 16 24 16 24-7.328125 24-16-10.992188-16-24-16zm0 0"/><path d="m208 40c0 4.417969-3.582031 8-8 8s-8-3.582031-8-8 3.582031-8 8-8 8 3.582031 8 8zm0 0"/><path d="m176 56c0 4.417969-3.582031 8-8 8s-8-3.582031-8-8 3.582031-8 8-8 8 3.582031 8 8zm0 0"/><path d="m240 56c0 4.417969-3.582031 8-8 8s-8-3.582031-8-8 3.582031-8 8-8 8 3.582031 8 8zm0 0"/><path d="m280 208h64v16h-64zm0 0"/><path d="m56 208h64v16h-64zm0 0"/></svg>