<svg height="496pt" viewBox="-15 0 495 496" width="496pt" xmlns="http://www.w3.org/2000/svg"><path d="m72.5 320h96v144h-96zm0 0" fill="#f0bc5e"/><path d="m120.5 0c-22.054688 0-40 17.945312-40 40v192h80v-192c0-22.054688-17.945312-40-40-40zm0 0" fill="#f0bc5e"/><path d="m438.828125 432.640625c1.039063-2.6875 1.671875-5.585937 1.671875-8.640625 0-13.230469-10.769531-24-24-24h-.648438c-2.128906-14.519531-9.878906-27.894531-21.757812-36.808594l-.792969-.589844c-6.535156-4.90625-11.359375-11.601562-13.953125-19.363281l-6.679687-20.046875-38.777344 27.695313c-16.214844 11.578125-26.648437 29.539062-28.902344 49.113281h-.488281c-13.230469 0-24 10.769531-24 24 0 3.054688.632812 5.953125 1.671875 8.640625-14.625 2.945313-25.671875 15.878906-25.671875 31.359375 0 17.648438 14.351562 32 32 32h144c17.648438 0 32-14.351562 32-32 0-15.480469-11.046875-28.414062-25.671875-31.359375zm-6.328125 47.359375h-144c-8.824219 0-16-7.175781-16-16s7.175781-16 16-16h96v-16h-80c-4.40625 0-8-3.585938-8-8s3.59375-8 8-8h40v-16h-23.335938c2.160157-14.390625 10.015626-27.511719 22.023438-36.097656l21.152344-15.101563c3.664062 10.648438 10.34375 19.832031 19.367187 26.597657l.792969.601562c7.847656 5.886719 13.167969 14.519531 15.128906 24h-23.128906v16h40c4.40625 0 8 3.585938 8 8s-3.59375 8-8 8h-16v16h32c8.824219 0 16 7.175781 16 16s-7.175781 16-16 16zm0 0"/><path d="m432.5 344h16v16h-16zm0 0"/><path d="m328.5 288h16v16h-16zm0 0"/><path d="m400.5 256h16v16h-16zm0 0"/><path d="m280.5 352h16v16h-16zm0 0"/><path d="m192.5 256v-32h-144v32c-26.472656 0-48 21.527344-48 48v72l33.96875 120h172.070312l33.65625-117.808594.304688-74.191406c0-26.472656-21.527344-48-48-48zm-128-16h112v16h-112zm128 240h-144v-168c0-4.414062 3.59375-8 8-8h128c4.40625 0 8 3.585938 8 8zm32-105.121094-16 56v-118.878906c0-13.230469-10.769531-24-24-24h-128c-13.230469 0-24 10.769531-24 24v118.878906l-16-56v-70.878906c0-17.648438 14.351562-32 32-32h144c17.648438 0 32 14.351562 32 32zm0 0"/><path d="m112.5 32h16v16h-16zm0 0"/><path d="m64.5 320h16v144h-16zm0 0"/><path d="m96.5 320h16v144h-16zm0 0"/><path d="m128.5 320h16v144h-16zm0 0"/><path d="m160.5 320h16v144h-16zm0 0"/></svg>