<svg height="496pt" viewBox="-43 0 495 496" width="496pt" xmlns="http://www.w3.org/2000/svg"><path d="m224.5 213.566406v-32.238281c0-5.152344-1.703125-10.265625-4.800781-14.398437l-17.597657-23.464844c-1.035156-1.375-1.601562-3.082032-1.601562-4.800782v-18.664062c0-10.414062-6.710938-19.214844-16-22.527344v-33.472656h-16v-40c0-13.230469-10.769531-24-24-24h-64c-13.230469 0-24 10.769531-24 24v40h-16v33.472656c-9.289062 3.3125-16 12.113282-16 22.527344v18.664062c0 1.71875-.566406 3.425782-1.601562 4.800782l-17.597657 23.472656c-3.097656 4.125-4.800781 9.238281-4.800781 14.398438v269.335937c0 5.160156 1.703125 10.273437 4.800781 14.398437l16 21.335938c4.511719 6.007812 11.6875 9.59375 19.199219 9.59375h144c7.511719 0 14.6875-3.585938 19.199219-9.601562l16-21.335938c3.097656-4.125 4.800781-9.238281 4.800781-14.398438v-104.238281h-16v85.574219h-32v16h32v2.664062c0 1.71875-.566406 3.425782-1.601562 4.800782l-16 21.335937c-1.503907 2.007813-3.894532 3.199219-6.398438 3.199219h-144c-2.503906 0-4.894531-1.191406-6.398438-3.199219l-16-21.335937c-1.035156-1.375-1.601562-3.082032-1.601562-4.800782v-2.664062h144v-16h-144v-240h144v-16h-142l17.207031-22.9375c3.097657-4.125 4.800781-9.238281 4.800781-14.390625v-18.671875c0-4.40625 3.59375-8 8-8h128c4.40625 0 8 3.59375 8 8v18.664062c0 5.152344 1.703126 10.265626 4.800782 14.398438l17.191406 22.9375h-30v16h32v21.566406zm-152-189.566406c0-4.40625 3.59375-8 8-8h64c4.40625 0 8 3.59375 8 8v8h-80zm0 72h-16v-16h16zm0-48h80v16h-80zm32 48h-16v-16h16zm32 0h-16v-16h16zm32 0h-16v-16h16zm0 0"/><path d="m112.5 416c-38.527344 0-80-10.015625-80-32 0-20.960938 36.480469-28.097656 52.160156-30.191406l2.128906 15.855468c-28.714843 3.839844-38.289062 12.382813-38.289062 14.335938 0 4.113281 22 16 64 16s64-11.886719 64-16c0-1.953125-9.574219-10.496094-38.28125-14.335938l2.128906-15.855468c15.671875 2.09375 52.152344 9.230468 52.152344 30.191406 0 21.984375-41.472656 32-80 32zm0 0"/><path d="m112.890625 384h-.78125c-21.839844 0-39.609375-17.769531-39.609375-39.609375 0-6.871094 1.808594-13.671875 5.214844-19.648437l34.785156-60.871094 34.785156 60.863281c3.40625 5.984375 5.214844 12.777344 5.214844 19.65625 0 21.839844-17.769531 39.609375-39.609375 39.609375zm0 0" fill="#f0bc5e"/><path d="m296.5 392c-61.761719 0-112-50.238281-112-112s50.238281-112 112-112 112 50.238281 112 112-50.238281 112-112 112zm0 0" fill="#f0bc5e"/><path d="m104.5 208h16v16h-16zm0 0"/><path d="m104.5 240h16v16h-16zm0 0"/><path d="m296.5 256c-13.230469 0-24-10.769531-24-24s10.769531-24 24-24 24 10.769531 24 24-10.769531 24-24 24zm0-32c-4.40625 0-8 3.59375-8 8s3.59375 8 8 8 8-3.59375 8-8-3.59375-8-8-8zm0 0"/><path d="m245.589844 277.078125c-6.144532 0-12.289063-2.335937-16.96875-7.015625-9.351563-9.359375-9.351563-24.582031 0-33.941406 9.359375-9.351563 24.574218-9.359375 33.941406 0 9.363281 9.351562 9.363281 24.582031 0 33.941406-4.6875 4.671875-10.832031 7.015625-16.972656 7.015625zm0-31.980469c-2.050782 0-4.097656.773438-5.65625 2.335938-3.121094 3.117187-3.121094 8.191406 0 11.308594 3.117187 3.121093 8.183594 3.113281 11.308594 0 3.121093-3.117188 3.121093-8.191407 0-11.316407-1.558594-1.554687-3.605469-2.328125-5.652344-2.328125zm0 0"/><path d="m347.410156 277.078125c-6.148437 0-12.292968-2.335937-16.972656-7.015625-9.363281-9.351562-9.363281-24.582031 0-33.941406 9.351562-9.351563 24.574219-9.359375 33.941406 0 9.351563 9.359375 9.351563 24.582031 0 33.941406-4.679687 4.671875-10.824218 7.015625-16.96875 7.015625zm0-31.980469c-2.046875 0-4.101562.773438-5.664062 2.335938-3.117188 3.117187-3.117188 8.191406 0 11.308594 3.121094 3.121093 8.195312 3.113281 11.320312 0 3.121094-3.117188 3.121094-8.191407 0-11.316407-1.558594-1.554687-3.605468-2.328125-5.65625-2.328125zm0 0"/><path d="m296.5 352c-31.398438 0-56-17.566406-56-40s24.601562-40 56-40 56 17.566406 56 40-24.601562 40-56 40zm0-64c-21.679688 0-40 10.992188-40 24s18.320312 24 40 24 40-10.992188 40-24-18.320312-24-40-24zm0 0"/></svg>