<svg height="496pt" viewBox="0 0 496 496" width="496pt" xmlns="http://www.w3.org/2000/svg"><g fill="#f0bc5e"><path d="m218.375 304c-14.222656 0-27.589844-5.535156-37.65625-15.601562l-7.429688-7.429688c-5.707031-5.703125-13.59375-8.96875-21.65625-8.96875-8.066406 0-15.953124 3.265625-21.65625 8.96875l-7.433593 7.429688c-10.054688 10.066406-23.421875 15.601562-37.65625 15.601562-29.367188 0-53.253907-23.886719-53.253907-53.257812v-18.742188c0-66.167969 53.832032-120 120-120 66.167969 0 120 53.832031 120 120v18.742188c0 29.371093-23.890624 53.257812-53.257812 53.257812zm0 0"/><path d="m151.632812 96c-22.058593 0-40-21.527344-40-48s17.941407-48 40-48c22.054688 0 40 21.527344 40 48s-17.945312 48-40 48zm0 0"/><path d="m52.160156 136.679688c-12.464844 0-25.816406-5.40625-36.289062-15.871094-18.710938-18.71875-21.238282-46.632813-5.65625-62.222656 15.585937-15.585938 43.511718-13.058594 62.226562 5.652343 18.710938 18.722657 21.246094 46.632813 5.652344 62.226563-6.871094 6.863281-16.125 10.214844-25.933594 10.214844zm0 0"/><path d="m251.113281 136.679688c-9.816406 0-19.074219-3.351563-25.9375-10.214844-15.59375-15.59375-13.054687-43.503906 5.65625-62.226563 18.710938-18.710937 46.640625-21.238281 62.222657-5.652343 15.585937 15.589843 13.058593 43.503906-5.65625 62.222656-10.480469 10.464844-23.832032 15.871094-36.285157 15.871094zm0 0"/></g><path d="m470.367188 400c-6.574219 0-13.007813 2.664062-17.65625 7.3125l-5.375 5.375-12.6875-12.6875 16-16-115.3125-115.3125-12 12-20-20-16 16-82.34375-82.34375-11.3125 11.3125 82.34375 82.34375-16 16 20 20-12 12 115.3125 115.3125 16-16 12.6875 12.6875-5.375 5.375c-4.648438 4.648438-7.3125 11.082031-7.3125 17.65625 0 13.769531 11.199218 24.96875 24.96875 24.96875 6.574218 0 13.007812-2.664062 17.65625-7.3125l46.0625-46.0625c4.648437-4.648438 7.3125-11.082031 7.3125-17.65625 0-13.769531-11.199219-24.96875-24.96875-24.96875zm-187.71875-96 20.6875-20.6875 8.6875 8.6875-20.6875 20.6875zm80 104 18.34375-18.34375-11.3125-11.3125-18.34375 18.34375-12.6875-12.6875 18.34375-18.34375-11.3125-11.3125-18.34375 18.34375-12.6875-12.6875 18.34375-18.34375-11.3125-11.3125-18.34375 18.34375-12.6875-12.6875 44.6875-44.6875 92.6875 92.6875-44.6875 44.6875zm48 16 12.6875-12.6875 12.6875 12.6875-12.6875 12.6875zm66.0625 7.3125-46.0625 46.0625c-1.671876 1.671875-3.984376 2.625-6.34375 2.625-4.945313 0-8.96875-4.023438-8.96875-8.96875 0-2.359375.953124-4.671875 2.625-6.34375l46.0625-46.0625c1.671874-1.671875 3.984374-2.625 6.34375-2.625 4.945312 0 8.96875 4.023438 8.96875 8.96875 0 2.359375-.953126 4.671875-2.625 6.34375zm0 0"/></svg>