<svg height="496pt" viewBox="0 0 496 496" width="496pt" xmlns="http://www.w3.org/2000/svg"><g fill="#f0bc5e"><path d="m232 0c-22.054688 0-40 17.945312-40 40v80l48-32v-88zm0 0"/><path d="m264 0h-8v88l48 32v-80c0-22.054688-17.945312-40-40-40zm0 0"/><path d="m320 346.558594c0 22.640625-3.359375 45.042968-9.839844 66.480468-6.480468 21.441407-16.160156 41.921876-28.71875 60.800782l-7.601562 11.359375c-8.320313 1.839843-16.960938 2.800781-25.839844 2.800781s-17.519531-.960938-25.839844-2.800781l-7.601562-11.359375c-12.558594-18.878906-22.238282-39.359375-28.71875-60.800782-6.480469-21.4375-9.839844-43.839843-9.839844-66.480468 0-22.957032 3.441406-45.679688 10.160156-67.519532l5.28125-17.117187c2.957032 5.679687 6.796875 10.878906 11.277344 15.359375 11.601562 11.519531 27.601562 18.71875 45.28125 18.71875 24.558594 0 45.839844-13.761719 56.558594-34.078125l5.28125 17.117187c6.71875 21.839844 10.160156 44.5625 10.160156 67.519532zm0 0"/></g><path d="m264 128h16v16h-16zm0 0"/><path d="m216 128h16v16h-16zm0 0"/><path d="m65.496094 59.355469 39.984375-56.007813 13.019531 9.296875-39.980469 56.007813zm0 0"/><path d="m0 296h40v16h-40zm0 0"/><path d="m377.476562 12.664062 13.019532-9.296874 39.996094 55.996093-13.019532 9.296875zm0 0"/><path d="m480 168v28.089844l-66.742188 51.910156h-43.746093c-3.816407-11.550781-9.175781-22.382812-15.9375-32.230469l77.210937-123.539062-13.570312-8.476563-74.222656 118.75c-10.289063-11.414062-22.535157-21-36.296876-28.136718l7.03125-10.542969c4.105469-6.152344 6.273438-13.3125 6.273438-20.710938 0-12.042969-5.847656-23.410156-15.648438-30.402343l-37.191406-26.574219c-11.25-8.03125-27.0625-8.03125-38.328125 0l-37.183593 26.566406c-9.800782 7-15.648438 18.367187-15.648438 30.410156 0 7.398438 2.167969 14.566407 6.273438 20.726563l7.03125 10.542968c-13.761719 7.136719-26.007813 16.714844-36.296876 28.136719l-74.222656-118.757812-13.570312 8.476562 77.210937 123.539063c-6.753906 9.839844-12.121093 20.679687-15.9375 32.230468h-43.746093l-66.742188-51.917968v-28.089844h-16v35.910156l77.257812 60.089844h45.078126c-1.488282 7.785156-2.335938 15.792969-2.335938 24v8h-64v16h64v32h-1.265625c-21.695313 0-42.695313 6.359375-60.742187 18.390625-15.832032 10.546875-28.6875 25.128906-37.199219 42.144531l-19.945313 39.890625 14.3125 7.160157 19.945313-39.890626c7.261719-14.527343 18.246093-26.976562 31.765625-35.984374 15.402344-10.277344 33.335937-15.710938 51.863281-15.710938h1.265625v8c0 70.574219 57.425781 128 128 128s128-57.425781 128-128v-8h1.265625c18.527344 0 36.460937 5.433594 51.863281 15.703125 13.511719 9.007813 24.496094 21.457031 31.765625 35.984375l19.945313 39.886719 14.3125-7.160157-19.945313-39.886718c-8.511719-17.015625-21.375-31.589844-37.199219-42.144532-18.039062-12.023437-39.046874-18.382812-60.742187-18.382812h-1.265625v-32h64v-16h-64v-8c0-8.207031-.847656-16.214844-2.335938-24h45.078126l77.257812-60.089844v-35.910156zm-240 72v47.359375c-27.097656-3.902344-48-27.207031-48-55.359375v-40.847656c14.3125-8.3125 30.601562-13.511719 48-14.753906v47.601562h16v-47.59375c17.398438 1.242188 33.6875 6.441406 48 14.753906v40.839844c0 28.152344-20.902344 51.457031-48 55.359375v-47.359375zm-44.414062-85.039062c-2.347657-3.519532-3.585938-7.617188-3.585938-11.847657 0-6.882812 3.34375-13.378906 8.953125-17.386719l37.183594-26.566406c5.792969-4.136718 13.941406-4.128906 19.71875 0l37.191406 26.574219c5.601563 4 8.945313 10.496094 8.945313 17.378906 0 4.230469-1.238282 8.335938-3.585938 11.847657l-8.613281 12.917968c-13.679688-5.007812-28.394531-7.878906-43.792969-7.878906s-30.113281 2.871094-43.800781 7.878906zm164.414062 213.039062c0 61.761719-50.238281 112-112 112s-112-50.238281-112-112v-80c0-34.351562 15.574219-65.105469 40-85.664062v29.664062c0 39.703125 32.304688 72 72 72s72-32.296875 72-72v-29.664062c24.425781 20.558593 40 51.3125 40 85.664062zm0 0"/><path d="m456 296h40v16h-40zm0 0"/></svg>