<svg height="496pt" viewBox="0 0 496 496" width="496pt" xmlns="http://www.w3.org/2000/svg"><path d="m344 161.902344v-33.902344h-32v-40c0-22.054688-17.945312-40-40-40s-40 17.945312-40 40v40h-32v33.902344c-23 6.1875-40 27.152344-40 52.074218 0 1.582032.070312 3.175782.207031 4.742188l22.527344 255.394531c1.113281 12.472657 11.394531 21.886719 23.914063 21.886719h130.703124c12.519532 0 22.800782-9.414062 23.90625-21.886719l4.664063-52.832031-15.9375-1.410156-4.664063 52.832031c-.367187 4.152344-3.792968 7.296875-7.96875 7.296875h-130.703124c-4.175782 0-7.601563-3.144531-7.96875-7.296875l-22.527344-255.40625c-.105469-1.105469-.152344-2.207031-.152344-3.320313 0-20.945312 17.03125-37.976562 37.976562-37.976562h116.046876c20.945312 0 37.976562 17.03125 37.976562 37.976562 0 .464844-.03125.917969-.054688 1.382813l-.035156.632813 16.011719.3125c.039063-.785157.078125-1.550782.078125-2.328126 0-24.921874-17-45.898437-40-52.074218zm-16-1.902344h-16v-16h16zm-64-16v16h-16v-16zm16 0h16v16h-16zm-32-56c0-13.230469 10.769531-24 24-24s24 10.769531 24 24v40h-48zm-16 56v16h-16v-16zm0 0"/><path d="m328 240v-48h-112v272h112v-64h-16v48h-80v-240h80v32zm0 0"/><path d="m248 224h48v16h-48zm0 0"/><path d="m248 256h48v16h-48zm0 0"/><path d="m248 288h32v16h-32zm0 0"/><path d="m248 320h32v16h-32zm0 0"/><path d="m248 352h40v16h-40zm0 0"/><path d="m248 384h48v16h-48zm0 0"/><path d="m248 416h48v16h-48zm0 0"/><path d="m80 16c13.230469 0 24 10.769531 24 24h16c0-22.054688-17.945312-40-40-40s-40 17.945312-40 40h16c0-13.230469 10.769531-24 24-24zm0 0"/><path d="m80 176c-13.230469 0-24-10.769531-24-24h-16c0 22.054688 17.945312 40 40 40s40-17.945312 40-40h-16c0 13.230469-10.769531 24-24 24zm0 0"/><path d="m40 120c-13.230469 0-24-10.769531-24-24s10.769531-24 24-24v-16c-22.054688 0-40 17.945312-40 40s17.945312 40 40 40zm0 0"/><path d="m101.472656 71.59375c32.664063 10.886719 66.6875 16.40625 101.128906 16.40625h5.398438v-16h-5.398438c-32.714843 0-65.035156-5.246094-96.066406-15.59375zm0 0"/><path d="m101.472656 112.40625 5.0625 15.179688c31.023438-10.339844 63.351563-15.585938 96.066406-15.585938h5.398438v-16h-5.398438c-34.441406 0-68.464843 5.519531-101.128906 16.40625zm0 0"/><path d="m72 104v16c13.230469 0 24-10.769531 24-24s-10.769531-24-24-24v16c4.40625 0 8 3.59375 8 8s-3.59375 8-8 8zm0 0"/><path d="m264 88h16v16h-16zm0 0"/><path d="m384 432c-61.761719 0-112-50.238281-112-112s50.238281-112 112-112 112 50.238281 112 112-50.238281 112-112 112zm0 0" fill="#f0bc5e"/><path d="m432 344h24v-16h-24v-7.433594h18.855469v-16h-21.449219c-2.679688-7.871094-7.351562-14.804687-13.40625-20.246094v-12.320312c0-17.648438-14.351562-32-32-32s-32 14.351562-32 32v12.320312c-3.742188 3.367188-6.960938 7.296876-9.503906 11.679688h-30.496094v16h24.71875c-.4375 2.609375-.71875 5.273438-.71875 8v8h-24v16h24v8c0 2.726562.28125 5.390625.71875 8h-24.71875v16h30.496094c8.3125 14.320312 23.785156 24 41.503906 24s33.191406-9.679688 41.503906-24h30.496094v-16h-24.71875c.4375-2.609375.71875-5.273438.71875-8zm-48-40c-11.246094 0-17.921875-4.183594-21.488281-7.550781 5.6875-5.191407 13.191406-8.449219 21.488281-8.449219s15.800781 3.257812 21.488281 8.449219c-3.566406 3.367187-10.242187 7.550781-21.488281 7.550781zm-16-32c0-8.824219 7.175781-16 16-16s16 7.175781 16 16v2.800781c-5.015625-1.777343-10.382812-2.800781-16-2.800781s-10.984375 1.023438-16 2.800781zm48 80c0 14.871094-10.238281 27.289062-24 30.863281v-30.863281h-16v30.863281c-13.761719-3.574219-24-15.992187-24-30.863281v-32c0-3.503906.703125-6.824219 1.753906-9.984375 4.925782 4.023437 12.183594 7.960937 22.246094 9.382813v16.601562h16v-16.59375c10.0625-1.421875 17.320312-5.359375 22.246094-9.382812 1.050781 3.152343 1.753906 6.472656 1.753906 9.976562zm0 0"/></svg>