<svg height="496pt" viewBox="0 0 496 496" width="496pt" xmlns="http://www.w3.org/2000/svg"><path d="m176.480469 360.367188c13.511719 1.046874 30.023437 4.511718 47.648437 10.105468-.050781-.824218-.128906-1.640625-.128906-2.472656 0-8.152344 2.046875-15.816406 5.632812-22.542969-55.199218-25.234375-93.632812-80.800781-93.632812-145.457031 0-88.367188 71.632812-160 160-160s160 71.632812 160 160c0 80.535156-59.566406 146.992188-137.015625 158.160156.664063 3.175782 1.015625 6.464844 1.015625 9.839844 0 12.128906-4.535156 23.167969-11.96875 31.609375 104.847656-6.226563 187.96875-93.195313 187.96875-199.609375 0-110.457031-89.542969-200-200-200s-200 89.542969-200 200c0 65.648438 31.632812 123.902344 80.480469 160.367188zm0 0" fill="#f0bc5e"/><path d="m296 232c-17.648438 0-32-14.351562-32-32s14.351562-32 32-32 32 14.351562 32 32-14.351562 32-32 32zm0 0" fill="#f0bc5e"/><path d="m288 64h16v16h-16zm0 0"/><path d="m288 96h16v56h-16zm0 0"/><path d="m194.171875 109.5 11.3125-11.316406 11.316406 11.3125-11.3125 11.316406zm0 0"/><path d="m216.804688 132.117188 11.316406-11.3125 39.597656 39.597656-11.316406 11.3125zm0 0"/><path d="m160 192h16v16h-16zm0 0"/><path d="m192 192h56v16h-56zm0 0"/><path d="m194.175781 290.511719 11.3125-11.3125 11.3125 11.3125-11.3125 11.3125zm0 0"/><path d="m216.796875 267.898438 39.597656-39.597657 11.3125 11.316407-39.597656 39.597656zm0 0"/><path d="m288 248h16v56h-16zm0 0"/><path d="m375.191406 290.519531 11.3125-11.3125 11.316406 11.3125-11.3125 11.3125zm0 0"/><path d="m324.277344 239.570312 11.3125-11.3125 39.597656 39.597657-11.3125 11.3125zm0 0"/><path d="m416 192h16v16h-16zm0 0"/><path d="m344 192h56v16h-56zm0 0"/><path d="m375.195312 109.496094 11.316407-11.316406 11.3125 11.316406-11.3125 11.3125zm0 0"/><path d="m324.28125 160.410156 39.597656-39.597656 11.3125 11.3125-39.597656 39.597656zm0 0"/><path d="m264 416h16v16h-16zm0 0"/><path d="m408 448v-82.359375c-5.167969 3.496094-10.503906 6.757813-16 9.773437v72.585938h-9.472656c.898437-2.511719 1.472656-5.183594 1.472656-8 0-13.230469-10.769531-24-24-24-8.984375 0-16.734375 5.015625-20.847656 12.335938-7.914063-8.007813-16.664063-15.542969-26.136719-22.433594 9.480469-10.253906 14.984375-23.773438 14.984375-37.902344 0-1.078125-.105469-2.128906-.160156-3.191406 78.054687-15.054688 136.160156-84.625 136.160156-164.808594 0-92.632812-75.359375-168-168-168s-168 75.367188-168 168c0 62.96875 35.609375 120.710938 91.257812 149.359375-1.203124 3.382813-2.074218 6.90625-2.609374 10.542969-18.320313-5.109375-35.257813-7.902344-48.648438-7.902344h-8c-36.992188 0-67.535156 28.054688-71.527344 64h-36.472656c-19.847656 0-36-16.152344-36-36s16.152344-36 36-36c15.441406 0 28 12.558594 28 28v4h16v-4c0-24.257812-19.734375-44-44-44-28.671875 0-52 23.328125-52 52s23.328125 52 52 52h36.472656c4 35.945312 34.535156 64 71.527344 64h296c22.054688 0 40-17.945312 40-40v-8zm-48-16c4.40625 0 8 3.585938 8 8s-3.59375 8-8 8-8-3.585938-8-8 3.59375-8 8-8zm-216-232c0-83.816406 68.183594-152 152-152s152 68.183594 152 152c0 72.601562-52.648438 135.585938-123.335938 149.136719-7.769531-21.609375-28.417968-37.136719-52.664062-37.136719-18.625 0-35.113281 9.175781-45.296875 23.207031-50.429687-25.902343-82.703125-78.183593-82.703125-135.207031zm128 128c22.054688 0 40 17.945312 40 40 0 10.902344-4.566406 21.328125-12.390625 28.832031-21.441406-13.648437-44.9375-24.457031-67.28125-32.0625 1.671875-20.523437 18.726563-36.769531 39.671875-36.769531zm56 152h-168c-30.878906 0-56-25.128906-56-56s25.121094-56 56-56h8c44.03125 0 133.246094 33.65625 172.800781 86.398438 2.09375 2.800781 3.199219 6.121093 3.199219 9.601562 0 8.824219-7.175781 16-16 16zm128 0h-100.296875c2.738281-4.710938 4.296875-10.175781 4.296875-16h118.632812c-3.304687 9.3125-12.199218 16-22.632812 16zm0 0"/><path d="m288 192h16v16h-16zm0 0"/></svg>